<?xml version="1.0" encoding="UTF-8"?>
<!DOCTYPE svg PUBLIC "-//W3C//DTD SVG 1.1//EN" "http://www.w3.org/Graphics/SVG/1.1/DTD/svg11.dtd">
<svg xmlns="http://www.w3.org/2000/svg" version="1.1" width="64px" height="64px" style="shape-rendering:geometricPrecision; text-rendering:geometricPrecision; image-rendering:optimizeQuality; fill-rule:evenodd; clip-rule:evenodd" xmlns:xlink="http://www.w3.org/1999/xlink">
<g><path style="opacity:0.974" fill="#000000" d="M 28.5,4.5 C 30.5273,4.33788 32.5273,4.50454 34.5,5C 42.2496,9.95869 50.083,14.792 58,19.5C 58.6667,31.8333 58.6667,44.1667 58,56.5C 57.5,57 57,57.5 56.5,58C 50.8333,58.6667 45.1667,58.6667 39.5,58C 38.6948,53.2512 38.1948,48.4179 38,43.5C 36.1781,41.9546 34.0114,41.288 31.5,41.5C 28.9886,41.288 26.8219,41.9546 25,43.5C 24.8052,48.4179 24.3052,53.2512 23.5,58C 17.8333,58.6667 12.1667,58.6667 6.5,58C 6,57.5 5.5,57 5,56.5C 4.33333,44.1667 4.33333,31.8333 5,19.5C 13.1521,14.85 20.9854,9.84998 28.5,4.5 Z"/></g>
</svg>
