<?xml version="1.0" encoding="UTF-8"?>
<!DOCTYPE svg PUBLIC "-//W3C//DTD SVG 1.1//EN" "http://www.w3.org/Graphics/SVG/1.1/DTD/svg11.dtd">
<svg xmlns="http://www.w3.org/2000/svg" version="1.1" width="64px" height="64px" style="shape-rendering:geometricPrecision; text-rendering:geometricPrecision; image-rendering:optimizeQuality; fill-rule:evenodd; clip-rule:evenodd" xmlns:xlink="http://www.w3.org/1999/xlink">
<g><path style="opacity:0.948" fill="#000000" d="M 28.5,1.5 C 34.124,0.45713 37.124,2.79046 37.5,8.5C 42.199,10.3659 45.3657,13.6993 47,18.5C 47.0098,30.3621 50.5098,41.0288 57.5,50.5C 57.2907,51.086 56.9574,51.586 56.5,52C 39.5927,52.8245 22.7594,52.6579 6,51.5C 9.11932,45.9091 11.786,39.9091 14,33.5C 14.8856,28.5298 15.5523,23.5298 16,18.5C 17.6343,13.6993 20.801,10.3659 25.5,8.5C 26.1321,5.93857 27.1321,3.60524 28.5,1.5 Z M 30.5,4.5 C 34.7735,7.0225 34.4402,7.85584 29.5,7C 30.2524,6.32924 30.5858,5.4959 30.5,4.5 Z"/></g>
<g><path style="opacity:0.829" fill="#000000" d="M 18.5,54.5 C 26.9901,53.3431 35.6567,53.1764 44.5,54C 38.712,61.9233 31.3786,63.5899 22.5,59C 20.9297,57.6032 19.5964,56.1032 18.5,54.5 Z"/></g>
</svg>
