<?xml version="1.0" encoding="UTF-8"?>
<!DOCTYPE svg PUBLIC "-//W3C//DTD SVG 1.1//EN" "http://www.w3.org/Graphics/SVG/1.1/DTD/svg11.dtd">
<svg xmlns="http://www.w3.org/2000/svg" version="1.1" width="512px" height="512px" style="shape-rendering:geometricPrecision; text-rendering:geometricPrecision; image-rendering:optimizeQuality; fill-rule:evenodd; clip-rule:evenodd" xmlns:xlink="http://www.w3.org/1999/xlink">
<g><path style="opacity:0.975" fill="#000000" d="M 233.5,-0.5 C 248.167,-0.5 262.833,-0.5 277.5,-0.5C 377.766,12.0408 449.266,64.0408 492,155.5C 502.296,180.684 508.796,206.684 511.5,233.5C 511.5,248.167 511.5,262.833 511.5,277.5C 498.959,377.766 446.959,449.266 355.5,492C 330.316,502.296 304.316,508.796 277.5,511.5C 262.833,511.5 248.167,511.5 233.5,511.5C 133.234,498.959 61.734,446.959 19,355.5C 8.70393,330.316 2.20393,304.316 -0.5,277.5C -0.5,262.833 -0.5,248.167 -0.5,233.5C 12.0408,133.234 64.0408,61.734 155.5,19C 180.684,8.70393 206.684,2.20393 233.5,-0.5 Z M 242.5,46.5 C 330.129,45.5457 395.963,82.5457 440,157.5C 472.943,223.662 472.609,289.662 439,355.5C 394.662,429.266 329.162,465.433 242.5,464C 166.091,456.518 108.924,419.684 71,353.5C 38.0573,287.338 38.3907,221.338 72,155.5C 110.351,90.5575 167.185,54.2241 242.5,46.5 Z"/></g>
<g><path style="opacity:0.963" fill="#000000" d="M 251.5,107.5 C 272.422,107.928 284.422,118.428 287.5,139C 284.209,161.485 271.209,171.818 248.5,170C 237.667,167.335 230.167,160.835 226,150.5C 220.626,127.911 229.126,113.578 251.5,107.5 Z"/></g>
<g><path style="opacity:0.966" fill="#000000" d="M 249.5,216.5 C 265.231,214.763 275.065,221.43 279,236.5C 279.667,285.167 279.667,333.833 279,382.5C 274.763,399.038 264.263,405.538 247.5,402C 238.605,398.441 233.439,391.941 232,382.5C 231.333,333.833 231.333,285.167 232,236.5C 233.803,226.203 239.636,219.537 249.5,216.5 Z"/></g>
</svg>
