<?xml version="1.0" encoding="UTF-8"?>
<!DOCTYPE svg PUBLIC "-//W3C//DTD SVG 1.1//EN" "http://www.w3.org/Graphics/SVG/1.1/DTD/svg11.dtd">
<svg xmlns="http://www.w3.org/2000/svg" version="1.1" width="64px" height="64px" style="shape-rendering:geometricPrecision; text-rendering:geometricPrecision; image-rendering:optimizeQuality; fill-rule:evenodd; clip-rule:evenodd" xmlns:xlink="http://www.w3.org/1999/xlink">
<g><path style="opacity:0.783" fill="#000000" d="M 14.5,3.5 C 16.1667,3.5 17.8333,3.5 19.5,3.5C 19.5,6.16667 19.5,8.83333 19.5,11.5C 13.612,11.7422 11.9453,9.07553 14.5,3.5 Z"/></g>
<g><path style="opacity:0.783" fill="#000000" d="M 43.5,3.5 C 49.3133,3.06197 50.98,5.56197 48.5,11C 46.8659,11.4935 45.1992,11.6602 43.5,11.5C 43.5,8.83333 43.5,6.16667 43.5,3.5 Z"/></g>
<g><path style="opacity:0.887" fill="#000000" d="M 6.5,7.5 C 10.1616,6.63708 12.3282,7.97041 13,11.5C 17.8337,14.6681 20.667,13.3347 21.5,7.5C 28.1667,7.5 34.8333,7.5 41.5,7.5C 42.333,13.3347 45.1663,14.6681 50,11.5C 51.586,7.04582 54.2526,6.37916 58,9.5C 58.4988,13.4862 58.6655,17.4862 58.5,21.5C 40.5,21.5 22.5,21.5 4.5,21.5C 3.96203,16.5329 4.6287,11.8662 6.5,7.5 Z"/></g>
<g><path style="opacity:0.932" fill="#000000" d="M 4.5,23.5 C 22.5,23.5 40.5,23.5 58.5,23.5C 58.6665,34.8382 58.4999,46.1716 58,57.5C 57.5,58 57,58.5 56.5,59C 39.8333,59.6667 23.1667,59.6667 6.5,59C 6,58.5 5.5,58 5,57.5C 4.50014,46.1716 4.33348,34.8382 4.5,23.5 Z M 14.5,30.5 C 19.4857,30.3049 21.1524,32.4716 19.5,37C 13.741,38.1387 12.0744,35.972 14.5,30.5 Z M 29.5,30.5 C 34.0374,30.2733 35.7041,32.2733 34.5,36.5C 28.0554,38.2544 26.3887,36.2544 29.5,30.5 Z M 44.5,30.5 C 49.3276,30.3852 50.6609,32.5519 48.5,37C 42.3389,37.878 41.0055,35.7113 44.5,30.5 Z M 14.5,45.5 C 20.5548,44.9421 21.8881,47.1088 18.5,52C 13.5705,52.427 12.2372,50.2604 14.5,45.5 Z M 28.5,45.5 C 34.7926,44.6362 36.4593,46.8029 33.5,52C 28.6168,52.4182 26.9501,50.2516 28.5,45.5 Z M 43.5,45.5 C 49.1581,44.6794 50.8248,46.846 48.5,52C 43.2616,52.5941 41.5949,50.4274 43.5,45.5 Z"/></g>
</svg>
