<?xml version="1.0" encoding="UTF-8"?>
<!DOCTYPE svg PUBLIC "-//W3C//DTD SVG 1.1//EN" "http://www.w3.org/Graphics/SVG/1.1/DTD/svg11.dtd">
<svg xmlns="http://www.w3.org/2000/svg" version="1.1" width="64px" height="64px" style="shape-rendering:geometricPrecision; text-rendering:geometricPrecision; image-rendering:optimizeQuality; fill-rule:evenodd; clip-rule:evenodd" xmlns:xlink="http://www.w3.org/1999/xlink">
<g><path style="opacity:0.92" fill="#000000" d="M 12.5,1.5 C 21.8393,1.33355 31.1726,1.50021 40.5,2C 45.6935,3.19347 48.8602,6.36014 50,11.5C 50.4994,17.1569 50.6661,22.8236 50.5,28.5C 54.6034,27.7691 58.1034,28.7691 61,31.5C 68.272,56.5525 59.272,66.5525 34,61.5C 26.8333,61.3333 19.6667,61.1667 12.5,61C 7,59.5 3.5,56 2,50.5C 1.33333,37.8333 1.33333,25.1667 2,12.5C 3.68443,6.98447 7.18443,3.31781 12.5,1.5 Z M 14.5,18.5 C 22.1739,18.3336 29.8406,18.5003 37.5,19C 38.9255,20.7141 38.5922,22.0475 36.5,23C 29.5,23.6667 22.5,23.6667 15.5,23C 13.2177,21.9158 12.8843,20.4158 14.5,18.5 Z M 14.5,29.5 C 22.5,29.5 30.5,29.5 38.5,29.5C 38.5,30.8333 38.5,32.1667 38.5,33.5C 30.4931,33.6664 22.4931,33.4997 14.5,33C 13.3157,31.8545 13.3157,30.6879 14.5,29.5 Z M 50.5,34.5 C 52.1667,34.5 53.8333,34.5 55.5,34.5C 55.6662,40.5092 55.4995,46.5092 55,52.5C 54.0475,54.5922 52.7141,54.9255 51,53.5C 50.5005,47.1754 50.3338,40.8421 50.5,34.5 Z M 15.5,39.5 C 22.5079,39.3337 29.5079,39.5004 36.5,40C 38.5922,40.9525 38.9255,42.2859 37.5,44C 29.8333,44.6667 22.1667,44.6667 14.5,44C 13.2568,42.184 13.5901,40.684 15.5,39.5 Z"/></g>
</svg>
