<?xml version="1.0" encoding="UTF-8"?>
<!DOCTYPE svg PUBLIC "-//W3C//DTD SVG 1.1//EN" "http://www.w3.org/Graphics/SVG/1.1/DTD/svg11.dtd">
<svg xmlns="http://www.w3.org/2000/svg" version="1.1" width="512px" height="512px" style="shape-rendering:geometricPrecision; text-rendering:geometricPrecision; image-rendering:optimizeQuality; fill-rule:evenodd; clip-rule:evenodd" xmlns:xlink="http://www.w3.org/1999/xlink">
<g><path style="opacity:0.951" fill="#000000" d="M 379.5,-0.5 C 385.5,-0.5 391.5,-0.5 397.5,-0.5C 401.406,1.11125 405.406,2.77792 409.5,4.5C 413.594,2.77792 417.594,1.11125 421.5,-0.5C 427.5,-0.5 433.5,-0.5 439.5,-0.5C 461.148,7.16193 471.148,22.4953 469.5,45.5C 476.142,46.3309 482.809,46.8309 489.5,47C 501.566,50.5608 508.899,58.3942 511.5,70.5C 511.5,132.5 511.5,194.5 511.5,256.5C 508.679,269.486 500.679,277.32 487.5,280C 415.167,280.5 342.834,280.667 270.5,280.5C 270.5,295.833 270.5,311.167 270.5,326.5C 286.17,326.333 301.837,326.5 317.5,327C 346.311,331.141 364.477,347.308 372,375.5C 374.251,396.22 373.917,416.887 371,437.5C 364.858,458.649 351.691,473.483 331.5,482C 323.942,484.639 316.275,486.806 308.5,488.5C 308.666,494.176 308.499,499.843 308,505.5C 306.64,508.023 304.807,510.023 302.5,511.5C 281.167,511.5 259.833,511.5 238.5,511.5C 235.772,509.931 233.938,507.598 233,504.5C 232.83,498.472 232.33,492.472 231.5,486.5C 211.714,483.36 195.214,474.36 182,459.5C 175.153,450.636 170.819,440.636 169,429.5C 168.333,398.5 168.333,367.5 169,336.5C 174.021,324.234 183.188,319.067 196.5,321C 200.393,321.465 204.06,322.631 207.5,324.5C 208.499,309.848 208.833,295.182 208.5,280.5C 146.832,280.667 85.1658,280.5 23.5,280C 10.3206,277.32 2.32059,269.486 -0.5,256.5C -0.5,194.5 -0.5,132.5 -0.5,70.5C 2.10108,58.3942 9.43441,50.5608 21.5,47C 86.5821,46.0073 151.582,46.3407 216.5,48C 221.396,53.3971 221.729,59.0638 217.5,65C 216.167,65.6667 214.833,66.3333 213.5,67C 150.5,67.3333 87.5,67.6667 24.5,68C 22.9512,69.214 21.7845,70.714 21,72.5C 20.3333,133.167 20.3333,193.833 21,254.5C 21.4652,255.931 22.2986,257.097 23.5,258C 85.0835,259.492 146.75,259.992 208.5,259.5C 206.182,243.591 211.515,231.091 224.5,222C 239.469,215.401 252.636,217.901 264,229.5C 269.949,238.595 272.116,248.595 270.5,259.5C 342.167,259.667 413.834,259.5 485.5,259C 487.667,258.167 489.167,256.667 490,254.5C 490.667,193.833 490.667,133.167 490,72.5C 489.215,70.714 488.049,69.214 486.5,68C 478.147,67.1683 469.813,67.3349 461.5,68.5C 448.303,87.2019 431.136,100.869 410,109.5C 388.29,101.297 370.79,87.6305 357.5,68.5C 337.508,67.6669 317.508,67.1669 297.5,67C 290.947,64.2701 288.78,59.4368 291,52.5C 292.167,50 294,48.1667 296.5,47C 314.176,46.833 331.843,46.333 349.5,45.5C 347.852,22.4953 357.852,7.16193 379.5,-0.5 Z M 382.5,20.5 C 391.132,18.6221 398.132,21.1221 403.5,28C 407.5,30 411.5,30 415.5,28C 422.515,20.0489 430.848,18.3822 440.5,23C 448.901,30.6681 451.068,39.8347 447,50.5C 438.5,65.6667 426.667,77.5 411.5,86C 408.983,86.2566 406.65,85.5899 404.5,84C 390.617,75.7835 379.783,64.6169 372,50.5C 367.277,37.4962 370.777,27.4962 382.5,20.5 Z M 156.5,142.5 C 171.389,141.444 180.056,148.278 182.5,163C 178.016,182.575 166.683,188.242 148.5,180C 137.594,168.371 137.928,157.038 149.5,146C 151.925,144.787 154.259,143.621 156.5,142.5 Z M 70.5,144.5 C 84.999,142.83 91.999,149.33 91.5,164C 91.8479,178.486 84.8479,185.32 70.5,184.5C 70.5,171.167 70.5,157.833 70.5,144.5 Z M 318.5,160.5 C 320.837,162.507 322.171,165.173 322.5,168.5C 320.5,168.5 318.5,168.5 316.5,168.5C 317.167,165.833 317.833,163.167 318.5,160.5 Z M 236.5,239.5 C 242.094,238.743 246.261,240.743 249,245.5C 249.021,277.894 249.688,310.227 251,342.5C 252.543,344.378 254.376,345.878 256.5,347C 276.5,347.333 296.5,347.667 316.5,348C 334.26,351.093 345.76,361.26 351,378.5C 352.566,393.793 352.899,409.126 352,424.5C 350.015,439.317 342.849,450.817 330.5,459C 317.833,463.667 305.167,468.333 292.5,473C 290.19,474.637 288.69,476.804 288,479.5C 287.501,483.486 287.334,487.486 287.5,491.5C 276.167,491.5 264.833,491.5 253.5,491.5C 256.344,479.349 252.011,471.182 240.5,467C 231.049,464.305 221.716,461.305 212.5,458C 200.497,451.163 192.997,440.996 190,427.5C 189.5,398.835 189.333,370.169 189.5,341.5C 197.211,341.604 203.044,344.937 207,351.5C 208.289,367.767 208.956,384.1 209,400.5C 211.654,408.126 216.821,410.626 224.5,408C 226,406.5 227.5,405 229,403.5C 229.333,351.833 229.667,300.167 230,248.5C 230.833,244.506 232.999,241.506 236.5,239.5 Z"/></g>
<g><path style="opacity:0.884" fill="#000000" d="M 251.5,46.5 C 264.082,46.2276 268.249,51.8943 264,63.5C 257.273,69.2672 251.273,68.6006 246,61.5C 244.087,54.9698 245.92,49.9698 251.5,46.5 Z"/></g>
<g><path style="opacity:0.943" fill="#000000" d="M 153.5,121.5 C 182.963,120.05 199.629,133.883 203.5,163C 200.383,191.057 184.716,205.057 156.5,205C 138.621,202.455 126.788,192.622 121,175.5C 116.263,147.955 127.096,129.955 153.5,121.5 Z M 156.5,142.5 C 154.259,143.621 151.925,144.787 149.5,146C 137.928,157.038 137.594,168.371 148.5,180C 166.683,188.242 178.016,182.575 182.5,163C 180.056,148.278 171.389,141.444 156.5,142.5 Z"/></g>
<g><path style="opacity:0.947" fill="#000000" d="M 215.5,121.5 C 220.351,120.784 224.518,122.117 228,125.5C 235.753,137.34 243.753,149.007 252,160.5C 252.042,148.737 252.708,137.07 254,125.5C 260.326,119.88 266.326,120.213 272,126.5C 273.636,150.103 273.97,173.77 273,197.5C 269.23,204.414 263.73,206.247 256.5,203C 247.544,190.922 238.711,178.755 230,166.5C 229.667,177.5 229.333,188.5 229,199.5C 223.719,206.422 217.719,207.088 211,201.5C 210.138,199.913 209.471,198.246 209,196.5C 208.333,174.167 208.333,151.833 209,129.5C 210.277,126.062 212.443,123.395 215.5,121.5 Z"/></g>
<g><path style="opacity:0.949" fill="#000000" d="M 315.5,121.5 C 320.677,120.703 325.177,122.036 329,125.5C 337.726,147.01 346.059,168.677 354,190.5C 355.886,199.076 352.553,204.076 344,205.5C 340.928,204.964 338.261,203.63 336,201.5C 333.998,197.658 332.498,193.658 331.5,189.5C 323.5,189.5 315.5,189.5 307.5,189.5C 306.502,193.658 305.002,197.658 303,201.5C 297.369,206.712 291.703,206.712 286,201.5C 284.496,197.961 284.163,194.295 285,190.5C 293.056,168.723 301.389,147.056 310,125.5C 311.812,124.023 313.645,122.69 315.5,121.5 Z M 318.5,160.5 C 317.833,163.167 317.167,165.833 316.5,168.5C 318.5,168.5 320.5,168.5 322.5,168.5C 322.171,165.173 320.837,162.507 318.5,160.5 Z"/></g>
<g><path style="opacity:0.942" fill="#000000" d="M 358.5,121.5 C 373.597,121.033 388.597,121.533 403.5,123C 407.749,127.546 408.582,132.713 406,138.5C 401.49,142.078 396.324,143.412 390.5,142.5C 390.667,161.17 390.5,179.836 390,198.5C 383.333,207.833 376.667,207.833 370,198.5C 369.5,179.836 369.333,161.17 369.5,142.5C 363.676,143.412 358.51,142.078 354,138.5C 350.931,131.46 352.431,125.793 358.5,121.5 Z"/></g>
<g><path style="opacity:0.948" fill="#000000" d="M 423.5,121.5 C 432.839,121.334 442.173,121.5 451.5,122C 457.721,122.722 461.055,126.222 461.5,132.5C 461.109,135.781 459.776,138.615 457.5,141C 450.281,142.429 442.947,142.929 435.5,142.5C 435.5,146.167 435.5,149.833 435.5,153.5C 441.509,153.334 447.509,153.501 453.5,154C 459.864,158.34 461.031,163.84 457,170.5C 456.097,171.701 454.931,172.535 453.5,173C 447.577,174.304 441.577,174.804 435.5,174.5C 435.5,177.833 435.5,181.167 435.5,184.5C 441.842,184.334 448.175,184.5 454.5,185C 461.486,188.962 462.986,194.462 459,201.5C 457.421,203.041 455.587,204.208 453.5,205C 442.833,205.667 432.167,205.667 421.5,205C 419.413,204.208 417.579,203.041 416,201.5C 414.353,176.921 414.02,152.254 415,127.5C 417.21,124.432 420.043,122.432 423.5,121.5 Z"/></g>
<g><path style="opacity:0.948" fill="#000000" d="M 55.5,123.5 C 66.8965,123.091 78.2298,123.591 89.5,125C 99.3955,129.229 106.229,136.396 110,146.5C 118.425,189.405 100.925,208.905 57.5,205C 54.4173,204.214 52.2506,202.381 51,199.5C 49.3651,176.897 49.0318,154.23 50,131.5C 51.104,128.279 52.9374,125.612 55.5,123.5 Z M 70.5,144.5 C 70.5,157.833 70.5,171.167 70.5,184.5C 84.8479,185.32 91.8479,178.486 91.5,164C 91.999,149.33 84.999,142.83 70.5,144.5 Z"/></g>
<g><path style="opacity:0.943" fill="#000000" d="M 49.5,344.5 C 61.0089,343.432 71.5089,346.099 81,352.5C 99.9893,341.248 118.489,342.081 136.5,355C 154.412,374.036 157.912,395.536 147,419.5C 138.35,434.82 126.85,447.653 112.5,458C 103.963,464.103 94.9626,469.436 85.5,474C 80.0599,475.174 75.0599,474.174 70.5,471C 47.1237,458.623 28.6237,441.123 15,418.5C 3.4964,391.683 8.9964,369.183 31.5,351C 37.3009,347.903 43.3009,345.736 49.5,344.5 Z M 50.5,365.5 C 60.1698,364.503 68.1698,367.67 74.5,375C 78.3021,377.828 82.3021,378.161 86.5,376C 97.0671,364.196 109.067,362.529 122.5,371C 131.14,379.527 133.973,389.694 131,401.5C 125.288,416.22 116.121,428.387 103.5,438C 96.5731,443.423 89.2397,448.256 81.5,452.5C 60.6315,442.132 44.4649,426.798 33,406.5C 26.3048,387.244 32.1381,373.577 50.5,365.5 Z"/></g>
</svg>
