<?xml version="1.0" encoding="UTF-8"?>
<!DOCTYPE svg PUBLIC "-//W3C//DTD SVG 1.1//EN" "http://www.w3.org/Graphics/SVG/1.1/DTD/svg11.dtd">
<svg xmlns="http://www.w3.org/2000/svg" version="1.1" width="512px" height="512px" style="shape-rendering:geometricPrecision; text-rendering:geometricPrecision; image-rendering:optimizeQuality; fill-rule:evenodd; clip-rule:evenodd" xmlns:xlink="http://www.w3.org/1999/xlink">
<g><path style="opacity:0.98" fill="#000000" d="M 93.5,-0.5 C 183.833,-0.5 274.167,-0.5 364.5,-0.5C 402.798,7.96885 425.298,31.6355 432,70.5C 432.667,116.167 432.667,161.833 432,207.5C 426.439,221.027 416.605,225.527 402.5,221C 397.123,217.957 393.623,213.457 392,207.5C 391.667,163.5 391.333,119.5 391,75.5C 388.91,60.0781 380.744,49.2448 366.5,43C 361.682,41.1307 356.682,40.1307 351.5,40C 269.833,39.3333 188.167,39.3333 106.5,40C 89.6351,40.6747 77.4684,48.508 70,63.5C 68.3844,67.3466 67.3844,71.3466 67,75.5C 66.0112,197.529 66.3445,319.529 68,441.5C 72.6831,456.271 82.5164,465.771 97.5,470C 124.808,471.251 152.141,471.918 179.5,472C 193.378,478.967 196.878,489.467 190,503.5C 187.06,507.037 183.56,509.703 179.5,511.5C 150.833,511.5 122.167,511.5 93.5,511.5C 55.2015,503.031 32.7015,479.364 26,440.5C 25.3333,317.167 25.3333,193.833 26,70.5C 32.7015,31.6355 55.2015,7.96885 93.5,-0.5 Z"/></g>
<g><path style="opacity:0.992" fill="#000000" d="M 119.5,119.5 C 192.501,119.333 265.501,119.5 338.5,120C 352.378,126.967 355.878,137.467 349,151.5C 346.292,155.104 342.792,157.604 338.5,159C 265.5,159.667 192.5,159.667 119.5,159C 105.635,152.073 102.135,141.573 109,127.5C 111.975,123.952 115.475,121.286 119.5,119.5 Z"/></g>
<g><path style="opacity:0.992" fill="#000000" d="M 119.5,199.5 C 192.501,199.333 265.501,199.5 338.5,200C 352.378,206.967 355.878,217.467 349,231.5C 346.292,235.104 342.792,237.604 338.5,239C 265.5,239.667 192.5,239.667 119.5,239C 105.635,232.073 102.135,221.573 109,207.5C 111.975,203.952 115.475,201.286 119.5,199.5 Z"/></g>
<g><path style="opacity:0.972" fill="#000000" d="M 269.5,511.5 C 265.167,511.5 260.833,511.5 256.5,511.5C 246.286,506.771 241.786,498.771 243,487.5C 250.333,462.833 257.667,438.167 265,413.5C 266.229,408.471 268.229,403.804 271,399.5C 308.833,361.667 346.667,323.833 384.5,286C 406.672,269.385 430.339,267.052 455.5,279C 480.53,295.737 489.697,318.904 483,348.5C 480.135,357.901 475.469,366.235 469,373.5C 431.472,411.361 393.639,448.861 355.5,486C 353.5,487 351.5,488 349.5,489C 322.627,496.215 295.96,503.715 269.5,511.5 Z M 419.5,312.5 C 433.904,310.909 442.237,317.242 444.5,331.5C 443.943,338.612 440.777,344.279 435,348.5C 425.986,339.652 417.152,330.652 408.5,321.5C 411.338,317.313 415.005,314.313 419.5,312.5 Z M 378.5,350.5 C 387.465,358.964 396.298,367.631 405,376.5C 405.667,377.167 405.667,377.833 405,378.5C 380.833,402.667 356.667,426.833 332.5,451C 319.537,454.823 306.537,458.157 293.5,461C 297.526,448.588 301.359,436.088 305,423.5C 329.395,398.938 353.895,374.605 378.5,350.5 Z"/></g>
<g><path style="opacity:0.988" fill="#000000" d="M 119.5,279.5 C 165.501,279.333 211.501,279.5 257.5,280C 271.365,286.927 274.865,297.427 268,311.5C 265.258,315.116 261.758,317.616 257.5,319C 211.5,319.667 165.5,319.667 119.5,319C 105.635,312.073 102.135,301.573 109,287.5C 111.975,283.952 115.475,281.286 119.5,279.5 Z"/></g>
</svg>
