<?xml version="1.0" encoding="UTF-8"?>
<!DOCTYPE svg PUBLIC "-//W3C//DTD SVG 1.1//EN" "http://www.w3.org/Graphics/SVG/1.1/DTD/svg11.dtd">
<svg xmlns="http://www.w3.org/2000/svg" version="1.1" width="64px" height="64px" style="shape-rendering:geometricPrecision; text-rendering:geometricPrecision; image-rendering:optimizeQuality; fill-rule:evenodd; clip-rule:evenodd" xmlns:xlink="http://www.w3.org/1999/xlink">
<g><path style="opacity:0.904" fill="#000000" d="M 16.5,-0.5 C 18.1667,-0.5 19.8333,-0.5 21.5,-0.5C 22.4137,2.72797 22.7471,6.06131 22.5,9.5C 20.1667,9.5 17.8333,9.5 15.5,9.5C 15.2529,6.06131 15.5863,2.72797 16.5,-0.5 Z"/></g>
<g><path style="opacity:0.904" fill="#000000" d="M 41.5,-0.5 C 43.1667,-0.5 44.8333,-0.5 46.5,-0.5C 47.4137,2.72797 47.7471,6.06131 47.5,9.5C 45.1667,9.5 42.8333,9.5 40.5,9.5C 40.2529,6.06131 40.5863,2.72797 41.5,-0.5 Z"/></g>
<g><path style="opacity:0.867" fill="#000000" d="M 9.5,5.5 C 10.5,5.5 11.5,5.5 12.5,5.5C 12.5,7.83333 12.5,10.1667 12.5,12.5C 16.8333,12.5 21.1667,12.5 25.5,12.5C 25.5,10.1667 25.5,7.83333 25.5,5.5C 29.5,5.5 33.5,5.5 37.5,5.5C 37.5,7.83333 37.5,10.1667 37.5,12.5C 41.8333,12.5 46.1667,12.5 50.5,12.5C 50.5,10.1667 50.5,7.83333 50.5,5.5C 53.2646,5.79762 55.7646,6.79762 58,8.5C 59.9889,12.253 60.8222,16.253 60.5,20.5C 41.1667,20.5 21.8333,20.5 2.5,20.5C 1.61202,13.7656 3.94535,8.76555 9.5,5.5 Z"/></g>
<g><path style="opacity:0.923" fill="#000000" d="M 60.5,63.5 C 41.1667,63.5 21.8333,63.5 2.5,63.5C 2.5,50.1667 2.5,36.8333 2.5,23.5C 21.8333,23.5 41.1667,23.5 60.5,23.5C 60.5,36.8333 60.5,50.1667 60.5,63.5 Z M 27.5,32.5 C 28.8221,32.33 29.9887,32.6634 31,33.5C 31.2117,36.7577 31.7117,39.9243 32.5,43C 35.3771,44.1268 38.3771,44.7935 41.5,45C 42.2448,47.405 41.5781,49.5717 39.5,51.5C 35.4616,55.6734 30.7949,56.5067 25.5,54C 17.0315,45.979 17.6981,38.8123 27.5,32.5 Z M 38.5,34.5 C 39.5,34.5 40.5,34.5 41.5,34.5C 41.5,35.5 41.5,36.5 41.5,37.5C 40.5,37.5 39.5,37.5 38.5,37.5C 38.5,36.5 38.5,35.5 38.5,34.5 Z"/></g>
<g><path style="opacity:0.806" fill="#000000" d="M 27.5,35.5 C 27.8234,42.5017 31.4901,46.8351 38.5,48.5C 34.0346,53.3972 29.2013,53.7305 24,49.5C 21.2672,43.7222 22.4339,39.0555 27.5,35.5 Z"/></g>
</svg>
