<?xml version="1.0" encoding="UTF-8"?>
<!DOCTYPE svg PUBLIC "-//W3C//DTD SVG 1.1//EN" "http://www.w3.org/Graphics/SVG/1.1/DTD/svg11.dtd">
<svg xmlns="http://www.w3.org/2000/svg" version="1.1" width="64px" height="64px" style="shape-rendering:geometricPrecision; text-rendering:geometricPrecision; image-rendering:optimizeQuality; fill-rule:evenodd; clip-rule:evenodd" xmlns:xlink="http://www.w3.org/1999/xlink">
<g><path style="opacity:0.649" fill="#000000" d="M 2.5,0.5 C 5.5,0.5 8.5,0.5 11.5,0.5C 11.5,1.5 11.5,2.5 11.5,3.5C 8.8806,3.23166 6.3806,3.565 4,4.5C 3.17053,9.86433 3.33719,15.1977 4.5,20.5C 14.7863,21.6423 25.1196,21.809 35.5,21C 39.1694,18.2051 38.5027,16.3717 33.5,15.5C 34.0522,13.6693 34.0522,12.0026 33.5,10.5C 35,9.5 36.5,8.5 38,7.5C 39.5,8.5 41,9.5 42.5,10.5C 41.9478,12.0026 41.9478,13.6693 42.5,15.5C 40.6453,15.272 39.8119,15.9387 40,17.5C 42.0065,16.3313 44.1732,15.6646 46.5,15.5C 47.0522,13.6693 47.0522,12.0026 46.5,10.5C 48,9.5 49.5,8.5 51,7.5C 52.5,8.5 54,9.5 55.5,10.5C 54.9478,12.0026 54.9478,13.6693 55.5,15.5C 54.5,15.5 53.5,15.5 52.5,15.5C 53.1637,17.8669 54.497,19.8669 56.5,21.5C 57.1667,21.1667 57.8333,20.8333 58.5,20.5C 59.8059,14.9462 59.8059,9.4462 58.5,4C 43.5037,3.50008 28.5037,3.33342 13.5,3.5C 13.5,2.5 13.5,1.5 13.5,0.5C 29.1702,0.333409 44.8369,0.500075 60.5,1C 61,1.5 61.5,2 62,2.5C 62.6667,8.83333 62.6667,15.1667 62,21.5C 60.8904,23.0368 59.3904,23.7035 57.5,23.5C 57.5,27.1667 57.5,30.8333 57.5,34.5C 59.3904,34.2965 60.8904,34.9632 62,36.5C 62.6667,44.5 62.6667,52.5 62,60.5C 61.5,61 61,61.5 60.5,62C 50.8333,62.6667 41.1667,62.6667 31.5,62C 31,61.5 30.5,61 30,60.5C 29.3333,52.5 29.3333,44.5 30,36.5C 30.6891,35.6433 31.5224,34.9767 32.5,34.5C 33.2,30.959 33.8666,27.459 34.5,24C 23.8333,23.6667 13.1667,23.3333 2.5,23C 2,22.5 1.5,22 1,21.5C 0.333333,15.1667 0.333333,8.83333 1,2.5C 1.71719,1.9558 2.21719,1.28913 2.5,0.5 Z M 43.5,18.5 C 53.079,19.6369 56.7456,24.9702 54.5,34.5C 53.8361,30.3462 52.6695,26.3462 51,22.5C 46.4156,19.4777 42.4156,20.1443 39,24.5C 38.8236,27.8818 38.3236,31.2152 37.5,34.5C 35.093,27.3409 37.093,22.0076 43.5,18.5 Z M 44.5,23.5 C 46.3904,23.2965 47.8904,23.9632 49,25.5C 50.2886,28.3508 50.7886,31.3508 50.5,34.5C 47.5,34.5 44.5,34.5 41.5,34.5C 41.3354,31.4816 41.502,28.4816 42,25.5C 42.9947,24.9341 43.828,24.2674 44.5,23.5 Z M 32.5,37.5 C 41.5,37.5 50.5,37.5 59.5,37.5C 59.8132,44.7546 59.4799,51.9213 58.5,59C 49.8397,59.4998 41.1731,59.6664 32.5,59.5C 32.5,52.1667 32.5,44.8333 32.5,37.5 Z M 44.5,44.5 C 45.9953,44.4148 46.9953,45.0815 47.5,46.5C 46.9588,48.5352 46.2922,50.5352 45.5,52.5C 44.4104,51.6086 44.4104,50.6086 45.5,49.5C 45.0233,48.5224 44.3567,47.6891 43.5,47C 44.2524,46.3292 44.5858,45.4959 44.5,44.5 Z"/></g>
<g><path style="opacity:0.657" fill="#000000" d="M 10.5,7.5 C 12.711,7.96677 14.711,8.96677 16.5,10.5C 15.9478,12.0026 15.9478,13.6693 16.5,15.5C 14.8002,15.6261 13.3002,16.2927 12,17.5C 10.6998,16.2927 9.19981,15.6261 7.5,15.5C 8.05216,13.6693 8.05216,12.0026 7.5,10.5C 8.99346,9.85892 9.99346,8.85892 10.5,7.5 Z"/></g>
<g><path style="opacity:0.657" fill="#000000" d="M 23.5,7.5 C 25.711,7.96677 27.711,8.96677 29.5,10.5C 28.9478,12.0026 28.9478,13.6693 29.5,15.5C 27.8002,15.6261 26.3002,16.2927 25,17.5C 23.6998,16.2927 22.1998,15.6261 20.5,15.5C 21.0522,13.6693 21.0522,12.0026 20.5,10.5C 21.9935,9.85892 22.9935,8.85892 23.5,7.5 Z"/></g>
<g><path style="opacity:0.603" fill="#000000" d="M 44.5,41.5 C 46.9928,41.3291 48.8261,42.3291 50,44.5C 49.9616,48.1549 49.7949,51.6549 49.5,55C 46.9009,55.769 44.4009,55.6023 42,54.5C 41.6608,51.964 41.1608,49.464 40.5,47C 41.0074,44.4547 42.3407,42.6214 44.5,41.5 Z M 44.5,44.5 C 44.5858,45.4959 44.2524,46.3292 43.5,47C 44.3567,47.6891 45.0233,48.5224 45.5,49.5C 44.4104,50.6086 44.4104,51.6086 45.5,52.5C 46.2922,50.5352 46.9588,48.5352 47.5,46.5C 46.9953,45.0815 45.9953,44.4148 44.5,44.5 Z"/></g>
</svg>
