<?xml version="1.0" encoding="UTF-8"?>
<!DOCTYPE svg PUBLIC "-//W3C//DTD SVG 1.1//EN" "http://www.w3.org/Graphics/SVG/1.1/DTD/svg11.dtd">
<svg xmlns="http://www.w3.org/2000/svg" version="1.1" width="64px" height="64px" style="shape-rendering:geometricPrecision; text-rendering:geometricPrecision; image-rendering:optimizeQuality; fill-rule:evenodd; clip-rule:evenodd" xmlns:xlink="http://www.w3.org/1999/xlink">
<g><path style="opacity:0.95" fill="#000000" d="M 27.5,-0.5 C 30.1667,-0.5 32.8333,-0.5 35.5,-0.5C 44.5,9.16667 53.8333,18.5 63.5,27.5C 63.5,30.1667 63.5,32.8333 63.5,35.5C 61.8583,37.0808 59.8583,37.7475 57.5,37.5C 57.6663,44.5079 57.4996,51.5079 57,58.5C 56.3028,60.5844 55.1361,62.2511 53.5,63.5C 48.1667,63.5 42.8333,63.5 37.5,63.5C 37.6661,57.8236 37.4994,52.1569 37,46.5C 34.4308,43.4297 31.2642,42.763 27.5,44.5C 26.8076,45.0253 26.3076,45.6919 26,46.5C 25.5006,52.1569 25.3339,57.8236 25.5,63.5C 20.1667,63.5 14.8333,63.5 9.5,63.5C 7.8639,62.2511 6.69724,60.5844 6,58.5C 5.50038,51.5079 5.33371,44.5079 5.5,37.5C 3.14166,37.7475 1.14166,37.0808 -0.5,35.5C -0.5,32.8333 -0.5,30.1667 -0.5,27.5C 9.16667,18.5 18.5,9.16667 27.5,-0.5 Z"/></g>
</svg>
