<?xml version="1.0" encoding="UTF-8"?>
<!DOCTYPE svg PUBLIC "-//W3C//DTD SVG 1.1//EN" "http://www.w3.org/Graphics/SVG/1.1/DTD/svg11.dtd">
<svg xmlns="http://www.w3.org/2000/svg" version="1.1" width="512px" height="512px" style="shape-rendering:geometricPrecision; text-rendering:geometricPrecision; image-rendering:optimizeQuality; fill-rule:evenodd; clip-rule:evenodd" xmlns:xlink="http://www.w3.org/1999/xlink">
<g><path style="opacity:0.945" fill="#000000" d="M 112.5,45.5 C 122.589,44.2542 131.589,46.7542 139.5,53C 148.466,61.6265 156.299,71.1265 163,81.5C 169.422,93.3434 175.589,105.343 181.5,117.5C 274.498,118.333 367.498,118.833 460.5,119C 475.14,120.976 483.973,129.143 487,143.5C 487.667,212.167 487.667,280.833 487,349.5C 483.86,361.973 476.027,369.807 463.5,373C 426.167,373.667 388.833,373.667 351.5,373C 344.907,368.463 343.407,362.629 347,355.5C 348.579,353.959 350.413,352.792 352.5,352C 387.833,351.667 423.167,351.333 458.5,351C 460.848,350.654 462.681,349.487 464,347.5C 464.667,285.167 464.667,222.833 464,160.5C 416.5,198 369,235.5 321.5,273C 305.247,284.482 289.247,284.149 273.5,272C 239.5,245.333 205.5,218.667 171.5,192C 168.894,190.062 167.061,187.562 166,184.5C 159.915,188.127 153.748,191.627 147.5,195C 139.227,201.887 136.06,210.72 138,221.5C 138.534,225.768 139.867,229.768 142,233.5C 158.333,261.5 174.667,289.5 191,317.5C 197.711,325.857 206.378,330.857 217,332.5C 221.744,331.382 226.244,329.548 230.5,327C 260.112,305.02 286.279,308.52 309,337.5C 320.857,353.874 331.19,371.207 340,389.5C 345.126,400.779 346.459,412.446 344,424.5C 341.802,431.081 337.636,435.915 331.5,439C 285.95,464.791 239.616,466.124 192.5,443C 164.989,427.828 142.155,407.328 124,381.5C 102.163,345.83 80.8295,309.83 60,273.5C 38.4069,235.2 29.7402,194.2 34,150.5C 42.282,101.861 68.4486,66.8605 112.5,45.5 Z M 118.5,67.5 C 124.289,69.7736 129.122,73.4403 133,78.5C 144.723,94.6059 154.39,111.939 162,130.5C 165.998,139.774 166.332,149.107 163,158.5C 152.588,165.958 141.755,172.792 130.5,179C 116.113,194.252 111.613,212.085 117,232.5C 118.115,236.729 119.781,240.729 122,244.5C 138.667,273.167 155.333,301.833 172,330.5C 187.874,351.347 208.374,358.18 233.5,351C 243.214,345.143 253.214,339.809 263.5,335C 269.49,334.44 274.823,336.107 279.5,340C 296.22,357.062 309.387,376.562 319,398.5C 321.771,404.577 322.771,410.911 322,417.5C 286.129,440.584 248.629,443.417 209.5,426C 181.325,411.158 158.158,390.658 140,364.5C 120,330.5 100,296.5 80,262.5C 67.3951,239.685 59.3951,215.352 56,189.5C 50.7003,135.093 71.5336,94.4265 118.5,67.5 Z M 187.5,141.5 C 275.501,141.333 363.501,141.5 451.5,142C 402.453,180.715 353.119,219.049 303.5,257C 299.013,259.039 294.68,258.706 290.5,256C 254.023,227.691 217.69,199.191 181.5,170.5C 187.051,161.515 189.051,151.848 187.5,141.5 Z"/></g>
</svg>
