<?xml version="1.0" encoding="UTF-8"?>
<!DOCTYPE svg PUBLIC "-//W3C//DTD SVG 1.1//EN" "http://www.w3.org/Graphics/SVG/1.1/DTD/svg11.dtd">
<svg xmlns="http://www.w3.org/2000/svg" version="1.1" width="512px" height="512px" style="shape-rendering:geometricPrecision; text-rendering:geometricPrecision; image-rendering:optimizeQuality; fill-rule:evenodd; clip-rule:evenodd" xmlns:xlink="http://www.w3.org/1999/xlink">
<g><path style="opacity:1" fill="#000000" d="M 14.5,-0.5 C 24.5,-0.5 34.5,-0.5 44.5,-0.5C 44.5,60.1667 44.5,120.833 44.5,181.5C 62.8333,181.5 81.1667,181.5 99.5,181.5C 99.5,139.5 99.5,97.5 99.5,55.5C 114.5,55.5 129.5,55.5 144.5,55.5C 144.5,69.1667 144.5,82.8333 144.5,96.5C 154.5,96.5 164.5,96.5 174.5,96.5C 174.5,82.8333 174.5,69.1667 174.5,55.5C 189.5,55.5 204.5,55.5 219.5,55.5C 219.5,97.5 219.5,139.5 219.5,181.5C 301.833,181.5 384.167,181.5 466.5,181.5C 466.5,120.833 466.5,60.1667 466.5,-0.5C 476.5,-0.5 486.5,-0.5 496.5,-0.5C 496.5,170.167 496.5,340.833 496.5,511.5C 486.5,511.5 476.5,511.5 466.5,511.5C 466.5,503.167 466.5,494.833 466.5,486.5C 325.833,486.5 185.167,486.5 44.5,486.5C 44.5,494.833 44.5,503.167 44.5,511.5C 34.5,511.5 24.5,511.5 14.5,511.5C 14.5,340.833 14.5,170.167 14.5,-0.5 Z M 44.5,235.5 C 185.167,235.5 325.833,235.5 466.5,235.5C 466.5,301.167 466.5,366.833 466.5,432.5C 448.167,432.5 429.833,432.5 411.5,432.5C 411.5,392.5 411.5,352.5 411.5,312.5C 396.5,312.5 381.5,312.5 366.5,312.5C 366.5,326.167 366.5,339.833 366.5,353.5C 356.5,353.5 346.5,353.5 336.5,353.5C 336.5,339.833 336.5,326.167 336.5,312.5C 321.5,312.5 306.5,312.5 291.5,312.5C 291.5,352.5 291.5,392.5 291.5,432.5C 267.5,432.5 243.5,432.5 219.5,432.5C 219.5,392.5 219.5,352.5 219.5,312.5C 204.5,312.5 189.5,312.5 174.5,312.5C 174.5,326.167 174.5,339.833 174.5,353.5C 164.5,353.5 154.5,353.5 144.5,353.5C 144.5,339.833 144.5,326.167 144.5,312.5C 129.5,312.5 114.5,312.5 99.5,312.5C 99.5,352.5 99.5,392.5 99.5,432.5C 81.1667,432.5 62.8333,432.5 44.5,432.5C 44.5,366.833 44.5,301.167 44.5,235.5 Z"/></g>
<g><path style="opacity:0.937" fill="#000000" d="M 397.5,52.5 C 405.298,59.7975 412.965,67.2975 420.5,75C 397.833,97.6667 375.167,120.333 352.5,143C 351.833,143.667 351.167,143.667 350.5,143C 336,128.5 321.5,114 307,99.5C 306.333,98.8333 306.333,98.1667 307,97.5C 314.014,90.3187 321.181,83.3187 328.5,76.5C 336.167,83.8333 343.833,91.1667 351.5,98.5C 367.188,83.479 382.521,68.1457 397.5,52.5 Z"/></g>
</svg>
