<?xml version="1.0" encoding="UTF-8"?>
<!DOCTYPE svg PUBLIC "-//W3C//DTD SVG 1.1//EN" "http://www.w3.org/Graphics/SVG/1.1/DTD/svg11.dtd">
<svg xmlns="http://www.w3.org/2000/svg" version="1.1" width="512px" height="512px" style="shape-rendering:geometricPrecision; text-rendering:geometricPrecision; image-rendering:optimizeQuality; fill-rule:evenodd; clip-rule:evenodd" xmlns:xlink="http://www.w3.org/1999/xlink">
<g><path style="opacity:0.958" fill="#000000" d="M 135.5,63.5 C 181.631,66.3487 204.631,91.0154 204.5,137.5C 204.571,152.739 201.738,167.406 196,181.5C 195.131,190.107 197.464,197.773 203,204.5C 206.5,208 210,211.5 213.5,215C 227.544,224.208 240.878,234.375 253.5,245.5C 254.485,247.098 254.651,248.765 254,250.5C 252.421,253.994 250.587,257.327 248.5,260.5C 254.695,273.252 259.195,286.585 262,300.5C 266.748,283.338 274.415,267.671 285,253.5C 290.851,247.169 297.351,241.669 304.5,237C 317.656,230.589 330.656,223.922 343.5,217C 348.363,213.77 352.196,209.604 355,204.5C 355.781,203.056 355.614,201.723 354.5,200.5C 344.548,194.882 336.548,187.215 330.5,177.5C 317.286,176.618 309.952,169.618 308.5,156.5C 309.541,146.466 314.874,140.132 324.5,137.5C 322.926,122.843 321.76,108.176 321,93.5C 339.804,82.8474 358.971,72.8474 378.5,63.5C 398.029,72.8474 417.196,82.8474 436,93.5C 435.299,108.182 434.132,122.849 432.5,137.5C 442.249,139.944 447.583,146.277 448.5,156.5C 447.083,169.582 439.75,176.582 426.5,177.5C 420.477,187.023 412.643,194.69 403,200.5C 402.333,202.167 402.333,203.833 403,205.5C 406.263,211.219 410.763,215.719 416.5,219C 430.928,225.582 444.928,232.915 458.5,241C 472.439,252.037 482.605,265.87 489,282.5C 500.533,309.844 502.533,337.844 495,366.5C 492.024,374.962 487.19,382.129 480.5,388C 476.154,390.674 471.487,392.507 466.5,393.5C 447.514,386.509 430.18,376.676 414.5,364C 409,359.167 403.5,354.333 398,349.5C 396.842,349.998 396.009,350.831 395.5,352C 415.034,372.173 437.867,387.673 464,398.5C 464.741,412.007 465.574,425.507 466.5,439C 466.435,441.225 466.102,443.392 465.5,445.5C 464.975,446.192 464.308,446.692 463.5,447C 405.167,447.667 346.833,447.667 288.5,447C 286.876,445.883 285.876,444.383 285.5,442.5C 286.281,427.429 287.614,412.429 289.5,397.5C 306.551,392.308 322.218,384.475 336.5,374C 345.289,367.546 353.789,360.713 362,353.5C 362.345,351.799 361.678,350.466 360,349.5C 342.142,365.521 322.309,378.688 300.5,389C 288.973,394.717 279.139,392.55 271,382.5C 266.002,375.503 262.335,367.836 260,359.5C 251.257,384.125 235.09,390.959 211.5,380C 191.35,369.834 172.85,357.334 156,342.5C 154.054,342.763 153.388,343.763 154,345.5C 171.494,362.339 191.327,375.839 213.5,386C 218.993,388.221 224.66,389.721 230.5,390.5C 231.358,407.677 232.358,424.844 233.5,442C 233.561,443.711 232.894,445.044 231.5,446C 199.417,447.16 167.25,447.66 135,447.5C 103.5,447.333 72,447.167 40.5,447C 38.4062,445.745 37.4062,443.912 37.5,441.5C 38.5318,424.498 39.5318,407.498 40.5,390.5C 53.9648,388.289 66.6315,383.789 78.5,377C 94.4571,367.871 109.124,357.038 122.5,344.5C 121.855,343.354 121.022,342.354 120,341.5C 103.068,356.747 84.2346,369.247 63.5,379C 56.44,382.075 49.1067,384.242 41.5,385.5C 33.2369,383.787 26.7369,379.454 22,372.5C 11.9853,352.986 8.65196,332.319 12,310.5C 14.3562,292.767 19.5229,275.934 27.5,260C 23.257,256.025 21.4237,251.191 22,245.5C 35.5974,233.9 49.7641,223.067 64.5,213C 73.1945,205.614 78.5278,196.28 80.5,185C 68.7377,157.59 67.571,129.757 77,101.5C 89.0353,77.2911 108.535,64.6245 135.5,63.5 Z M 134.5,72.5 C 167.346,72.5238 187.18,88.5238 194,120.5C 198.239,147.07 193.239,171.737 179,194.5C 165.911,213.466 148.077,220.966 125.5,217C 107.692,209.859 95.1923,197.359 88,179.5C 78.9927,157.707 77.326,135.374 83,112.5C 91.2312,87.4868 108.398,74.1535 134.5,72.5 Z M 367.5,121.5 C 380.381,120.687 393.047,121.854 405.5,125C 412.779,126.961 418.279,131.128 422,137.5C 427.414,163.504 418.247,182.337 394.5,194C 368.782,201.055 349.616,192.888 337,169.5C 332.437,157.767 332.437,146.101 337,134.5C 340.387,130.554 344.554,127.72 349.5,126C 355.581,124.29 361.581,122.79 367.5,121.5 Z M 136.5,122.5 C 149.167,122.749 160.834,126.249 171.5,133C 176.846,151.76 174.013,169.26 163,185.5C 146.637,203.716 129.97,204.049 113,186.5C 101.375,170.115 98.2085,152.282 103.5,133C 113.743,126.751 124.743,123.251 136.5,122.5 Z M 323.5,146.5 C 324.04,152.974 325.04,159.474 326.5,166C 318.743,164.131 316.243,159.298 319,151.5C 320.707,149.963 322.207,148.296 323.5,146.5 Z M 432.5,146.5 C 441.958,153.358 441.791,160.025 432,166.5C 431.5,166.333 431,166.167 430.5,166C 432.291,159.67 432.957,153.17 432.5,146.5 Z M 86.5,196.5 C 98.1909,215.516 115.191,225.85 137.5,227.5C 150.602,227.279 162.268,223.113 172.5,215C 178.415,209.59 183.748,203.757 188.5,197.5C 191.714,204.765 196.047,211.265 201.5,217C 215.333,227.5 229.167,238 243,248.5C 242.553,252.864 240.387,256.364 236.5,259C 223.189,268.109 208.523,274.109 192.5,277C 180.719,279.783 168.886,280.95 157,280.5C 156.142,270.814 155.142,261.148 154,251.5C 153.128,246.411 150.128,243.744 145,243.5C 142.077,243.795 139.743,245.129 138,247.5C 129.395,240.965 123.728,242.965 121,253.5C 120.09,262.835 119.256,272.168 118.5,281.5C 98.7021,280.04 79.3687,276.207 60.5,270C 54.2211,267.527 48.2211,264.527 42.5,261C 37.9771,257.977 34.3104,254.144 31.5,249.5C 44.3343,239.506 57.3343,229.673 70.5,220C 78.0657,213.616 83.399,205.783 86.5,196.5 Z M 392.5,203.5 C 396.273,215.582 391.773,222.249 379,223.5C 374.173,223.004 369.839,221.337 366,218.5C 364.621,213.964 364.121,209.297 364.5,204.5C 369.141,205.032 373.807,205.366 378.5,205.5C 383.437,205.7 388.104,205.033 392.5,203.5 Z M 354.5,219.5 C 363.899,230.902 375.899,234.402 390.5,230C 395.306,227.694 398.973,224.194 401.5,219.5C 402.308,219.808 402.975,220.308 403.5,221C 398.274,230.535 390.107,235.035 379,234.5C 370.061,234.634 362.394,231.634 356,225.5C 354.872,223.655 354.372,221.655 354.5,219.5 Z M 144.5,253.5 C 146.045,264.68 147.545,276.013 149,287.5C 152.134,297.936 156.968,307.436 163.5,316C 160.519,322.622 157.352,329.122 154,335.5C 147.662,332.178 144.329,326.845 144,319.5C 142.597,299.517 142.264,279.517 143,259.5C 143.315,257.414 143.815,255.414 144.5,253.5 Z M 129.5,254.5 C 131.045,255.23 131.878,256.563 132,258.5C 133.377,276.816 133.377,295.149 132,313.5C 132.251,321.419 129.751,328.253 124.5,334C 123.234,334.309 122.067,334.809 121,335.5C 117.56,328.955 114.394,322.288 111.5,315.5C 125.393,297.613 131.393,277.28 129.5,254.5 Z M 370.5,262.5 C 371.927,264.148 372.76,266.148 373,268.5C 373.815,288.521 373.482,308.521 372,328.5C 371.361,335.795 367.694,340.795 361,343.5C 357.373,337.08 353.873,330.58 350.5,324C 357.594,315.985 362.761,306.818 366,296.5C 367.83,285.197 369.33,273.864 370.5,262.5 Z M 385.5,262.5 C 386.222,262.918 386.722,263.584 387,264.5C 385.675,286.908 392.175,306.575 406.5,323.5C 403.255,330.324 399.755,336.991 396,343.5C 389.306,340.795 385.639,335.795 385,328.5C 383.556,308.519 383.223,288.519 384,268.5C 384.505,266.482 385.005,264.482 385.5,262.5 Z M 60.5,284.5 C 63.2431,284.077 64.5765,285.244 64.5,288C 62.3557,301.088 61.0224,314.254 60.5,327.5C 76.5987,325.948 90.5987,319.781 102.5,309C 103.793,308.51 105.127,308.343 106.5,308.5C 106.657,309.873 106.49,311.207 106,312.5C 88.3545,327.708 67.8545,334.208 44.5,332C 40.8575,330.422 40.6908,328.589 44,326.5C 47.73,327.46 51.5633,327.793 55.5,327.5C 56.0742,312.997 57.7409,298.664 60.5,284.5 Z M 212.5,284.5 C 214.124,284.36 215.29,285.027 216,286.5C 218.123,300.104 219.623,313.771 220.5,327.5C 224.24,327.759 227.906,327.426 231.5,326.5C 235.528,328.94 235.194,330.774 230.5,332C 207.414,334.304 187.247,327.804 170,312.5C 169.51,311.207 169.343,309.873 169.5,308.5C 173.678,309.145 177.011,311.312 179.5,315C 190.62,321.651 202.62,325.818 215.5,327.5C 214.643,314.623 213.31,301.79 211.5,289C 211.605,287.408 211.939,285.908 212.5,284.5 Z M 309.5,293.5 C 312.488,293.155 313.821,294.488 313.5,297.5C 311.441,309.76 310.107,322.094 309.5,334.5C 316.198,333.488 322.532,331.322 328.5,328C 333.632,324.533 338.466,320.7 343,316.5C 345.188,317.059 345.854,318.393 345,320.5C 330.76,335.692 313.26,342.192 292.5,340C 288.857,338.422 288.691,336.589 292,334.5C 296.066,335.464 300.233,335.797 304.5,335.5C 305.148,321.336 306.814,307.336 309.5,293.5 Z M 444.5,293.5 C 447.766,293.433 449.266,295.099 449,298.5C 450.83,310.803 452.33,323.137 453.5,335.5C 457.571,335.766 461.571,335.433 465.5,334.5C 469.222,336.701 468.889,338.535 464.5,340C 443.2,342.184 425.533,335.184 411.5,319C 411.998,317.842 412.831,317.009 414,316.5C 420.874,323.027 428.707,328.194 437.5,332C 441.014,333.562 444.681,334.395 448.5,334.5C 447.285,321.61 445.618,308.776 443.5,296C 443.743,295.098 444.077,294.265 444.5,293.5 Z M 137.5,356.5 C 138.983,383.675 140.316,411.009 141.5,438.5C 139.167,438.5 136.833,438.5 134.5,438.5C 135.34,411.16 136.34,383.827 137.5,356.5 Z M 378.5,367.5 C 379.845,390.902 381.178,414.402 382.5,438C 380.19,438.497 377.857,438.663 375.5,438.5C 375.919,414.779 376.919,391.112 378.5,367.5 Z"/></g>
<g><path style="opacity:0.91" fill="#000000" d="M 131.5,94.5 C 158.636,94.1334 175.469,107.133 182,133.5C 185.927,154.535 181.927,173.869 170,191.5C 148.387,214.114 126.72,214.114 105,191.5C 88.3719,165.722 87.3719,139.388 102,112.5C 109.683,102.752 119.516,96.752 131.5,94.5 Z M 136.5,122.5 C 124.743,123.251 113.743,126.751 103.5,133C 98.2085,152.282 101.375,170.115 113,186.5C 129.97,204.049 146.637,203.716 163,185.5C 174.013,169.26 176.846,151.76 171.5,133C 160.834,126.249 149.167,122.749 136.5,122.5 Z"/></g>
</svg>
