<?xml version="1.0" encoding="UTF-8"?>
<!DOCTYPE svg PUBLIC "-//W3C//DTD SVG 1.1//EN" "http://www.w3.org/Graphics/SVG/1.1/DTD/svg11.dtd">
<svg xmlns="http://www.w3.org/2000/svg" version="1.1" width="64px" height="64px" style="shape-rendering:geometricPrecision; text-rendering:geometricPrecision; image-rendering:optimizeQuality; fill-rule:evenodd; clip-rule:evenodd" xmlns:xlink="http://www.w3.org/1999/xlink">
<g><path style="opacity:0.952" fill="#000000" d="M 27.5,-0.5 C 30.1667,-0.5 32.8333,-0.5 35.5,-0.5C 39.3909,2.55459 40.3909,6.38793 38.5,11C 40.3333,11.5 41.5,12.6667 42,14.5C 42.4974,17.146 42.6641,19.8127 42.5,22.5C 44.5,22.5 46.5,22.5 48.5,22.5C 48.5,25.8333 48.5,29.1667 48.5,32.5C 47.5,32.5 46.5,32.5 45.5,32.5C 45.5,39.5 45.5,46.5 45.5,53.5C 47.1667,53.5 48.8333,53.5 50.5,53.5C 50.5,55.5 50.5,57.5 50.5,59.5C 51.8333,59.5 53.1667,59.5 54.5,59.5C 54.5,60.8333 54.5,62.1667 54.5,63.5C 39.1667,63.5 23.8333,63.5 8.5,63.5C 8.5,62.1667 8.5,60.8333 8.5,59.5C 9.83333,59.5 11.1667,59.5 12.5,59.5C 12.5,57.5 12.5,55.5 12.5,53.5C 14.1667,53.5 15.8333,53.5 17.5,53.5C 17.5,46.5 17.5,39.5 17.5,32.5C 16.5,32.5 15.5,32.5 14.5,32.5C 14.5,29.1667 14.5,25.8333 14.5,22.5C 16.5,22.5 18.5,22.5 20.5,22.5C 20.3359,19.8127 20.5026,17.146 21,14.5C 21.5,12.6667 22.6667,11.5 24.5,11C 22.6114,6.34431 23.6114,2.51098 27.5,-0.5 Z M 29.5,4.5 C 33.1378,3.73656 34.6378,5.0699 34,8.5C 29.4155,10.4126 27.9155,9.0793 29.5,4.5 Z M 25.5,16.5 C 26.198,18.6669 27.5313,20.5002 29.5,22C 27.8659,22.4935 26.1992,22.6602 24.5,22.5C 24.5172,20.4352 24.8505,18.4352 25.5,16.5 Z M 36.5,16.5 C 38.0739,18.1016 38.7406,20.1016 38.5,22.5C 36.8008,22.6602 35.1341,22.4935 33.5,22C 35.607,20.7365 36.607,18.9032 36.5,16.5 Z M 18.5,26.5 C 27.1922,26.1686 35.8589,26.502 44.5,27.5C 40.1667,27.8333 35.8333,28.1667 31.5,28.5C 26.7784,28.4921 22.4451,27.8255 18.5,26.5 Z M 21.5,32.5 C 28.1667,32.5 34.8333,32.5 41.5,32.5C 41.8303,39.5316 41.497,46.5316 40.5,53.5C 39.5037,47.2015 39.1703,40.8682 39.5,34.5C 34.1667,34.5 28.8333,34.5 23.5,34.5C 23.8297,40.8682 23.4963,47.2015 22.5,53.5C 21.503,46.5316 21.1697,39.5316 21.5,32.5 Z M 27.5,38.5 C 30.1667,38.5 32.8333,38.5 35.5,38.5C 35.5,43.5 35.5,48.5 35.5,53.5C 32.8333,53.5 30.1667,53.5 27.5,53.5C 27.5,48.5 27.5,43.5 27.5,38.5 Z M 16.5,57.5 C 26.5222,57.1681 36.5222,57.5015 46.5,58.5C 41.5,58.8333 36.5,59.1667 31.5,59.5C 26.1194,59.4942 21.1194,58.8275 16.5,57.5 Z"/></g>
</svg>
