<?xml version="1.0" encoding="UTF-8"?>
<!DOCTYPE svg PUBLIC "-//W3C//DTD SVG 1.1//EN" "http://www.w3.org/Graphics/SVG/1.1/DTD/svg11.dtd">
<svg xmlns="http://www.w3.org/2000/svg" version="1.1" width="64px" height="64px" style="shape-rendering:geometricPrecision; text-rendering:geometricPrecision; image-rendering:optimizeQuality; fill-rule:evenodd; clip-rule:evenodd" xmlns:xlink="http://www.w3.org/1999/xlink">
<g><path style="opacity:0.649" fill="#000000" d="M 18.5,-0.5 C 24.1667,-0.5 29.8333,-0.5 35.5,-0.5C 36.4657,7.08036 36.799,14.747 36.5,22.5C 30.5,22.5 24.5,22.5 18.5,22.5C 18.5,14.8333 18.5,7.16667 18.5,-0.5 Z M 22.5,11.5 C 26.1667,11.5 29.8333,11.5 33.5,11.5C 33.5,13.8333 33.5,16.1667 33.5,18.5C 29.8333,18.5 26.1667,18.5 22.5,18.5C 22.5,16.1667 22.5,13.8333 22.5,11.5 Z"/></g>
<g><path style="opacity:0.705" fill="#000000" d="M 38.5,-0.5 C 44.1667,-0.5 49.8333,-0.5 55.5,-0.5C 55.5,7.16667 55.5,14.8333 55.5,22.5C 49.5,22.5 43.5,22.5 37.5,22.5C 37.201,14.747 37.5343,7.08036 38.5,-0.5 Z"/></g>
<g><path style="opacity:0.741" fill="#000000" d="M 40.5,29.5 C 39.8333,29.5 39.5,29.8333 39.5,30.5C 37.8333,30.5 36.1667,30.5 34.5,30.5C 34.5,29.8333 34.1667,29.5 33.5,29.5C 33.5,28.5 33.5,27.5 33.5,26.5C 27.8333,26.5 22.1667,26.5 16.5,26.5C 14.5861,19.1081 13.9194,11.4415 14.5,3.5C 15.5,3.5 16.5,3.5 17.5,3.5C 17.5,10.1667 17.5,16.8333 17.5,23.5C 30.5,23.5 43.5,23.5 56.5,23.5C 56.5,16.8333 56.5,10.1667 56.5,3.5C 57.5,3.5 58.5,3.5 59.5,3.5C 59.5,11.1667 59.5,18.8333 59.5,26.5C 53.1667,26.5 46.8333,26.5 40.5,26.5C 40.5,27.5 40.5,28.5 40.5,29.5 Z M 22.5,11.5 C 22.5,13.8333 22.5,16.1667 22.5,18.5C 26.1667,18.5 29.8333,18.5 33.5,18.5C 33.5,16.1667 33.5,13.8333 33.5,11.5C 29.8333,11.5 26.1667,11.5 22.5,11.5 Z"/></g>
<g><path style="opacity:0.656" fill="#000000" d="M 11.5,23.5 C 10.5509,18.2599 10.2175,12.9265 10.5,7.5C 11.5,7.5 12.5,7.5 13.5,7.5C 14.1128,13.2709 13.4461,18.6042 11.5,23.5 Z"/></g>
<g><path style="opacity:0.823" fill="#000000" d="M 63.5,7.5 C 63.5,16.1667 63.5,24.8333 63.5,33.5C 62.209,33.2627 61.209,33.596 60.5,34.5C 59.5084,34.3284 58.8417,34.6618 58.5,35.5C 57.5084,35.3284 56.8417,35.6618 56.5,36.5C 55.5084,36.3284 54.8417,36.6618 54.5,37.5C 53.5084,37.3284 52.8417,37.6618 52.5,38.5C 51.5084,38.3284 50.8417,38.6618 50.5,39.5C 49.5084,39.3284 48.8417,39.6618 48.5,40.5C 46.326,40.7497 44.6594,41.7497 43.5,43.5C 42.5084,43.3284 41.8417,43.6618 41.5,44.5C 40.5084,44.3284 39.8417,44.6618 39.5,45.5C 38.1952,43.6028 37.5286,41.2695 37.5,38.5C 37.6205,35.5589 38.2872,32.8922 39.5,30.5C 40.1667,30.5 40.5,30.1667 40.5,29.5C 46.8824,27.6007 53.5491,26.9341 60.5,27.5C 60.5,20.8333 60.5,14.1667 60.5,7.5C 61.5,7.5 62.5,7.5 63.5,7.5 Z"/></g>
<g><path style="opacity:0.853" fill="#000000" d="M 23.5,12.5 C 26.1667,12.5 28.8333,12.5 31.5,12.5C 31.5,14.1667 31.5,15.8333 31.5,17.5C 28.8333,17.5 26.1667,17.5 23.5,17.5C 23.5,15.8333 23.5,14.1667 23.5,12.5 Z"/></g>
<g><path style="opacity:0.574" fill="#000000" d="M 11.5,23.5 C 12.2341,24.7079 12.5674,26.0413 12.5,27.5C 10.5,28.8333 8.5,28.8333 6.5,27.5C 6.38377,24.0897 8.05044,22.7564 11.5,23.5 Z"/></g>
<g><path style="opacity:0.646" fill="#000000" d="M 6.5,27.5 C 6.5,28.8333 6.5,30.1667 6.5,31.5C 4.83333,31.5 3.16667,31.5 1.5,31.5C 0.922388,27.065 2.58905,25.7317 6.5,27.5 Z"/></g>
<g><path style="opacity:0.646" fill="#000000" d="M 16.5,26.5 C 17.3007,28.0418 17.634,29.7085 17.5,31.5C 15.8333,31.5 14.1667,31.5 12.5,31.5C 12.5,30.1667 12.5,28.8333 12.5,27.5C 13.7079,26.7659 15.0413,26.4326 16.5,26.5 Z"/></g>
<g><path style="opacity:0.821" fill="#000000" d="M 33.5,29.5 C 34.1667,29.5 34.5,29.8333 34.5,30.5C 35.7128,32.8922 36.3795,35.5589 36.5,38.5C 36.4714,41.2695 35.8048,43.6028 34.5,45.5C 34.1583,44.6618 33.4916,44.3284 32.5,44.5C 31.3406,42.7497 29.674,41.7497 27.5,41.5C 27.1583,40.6618 26.4916,40.3284 25.5,40.5C 25.1583,39.6618 24.4916,39.3284 23.5,39.5C 22.828,38.7326 21.9947,38.0659 21,37.5C 20.8019,35.6183 20.3019,33.9516 19.5,32.5C 18.6993,30.9582 18.366,29.2915 18.5,27.5C 23.807,26.9735 28.807,27.6402 33.5,29.5 Z"/></g>
<g><path style="opacity:0.286" fill="#000000" d="M 12.5,31.5 C 12.6309,32.3764 12.2975,33.0431 11.5,33.5C 10.3861,32.277 10.2195,30.9437 11,29.5C 11.2784,30.4158 11.7784,31.0825 12.5,31.5 Z"/></g>
<g><path style="opacity:0.604" fill="#000000" d="M -0.5,32.5 C 3.67593,31.8307 5.00926,33.3307 3.5,37C 2.20677,37.49 0.873441,37.6567 -0.5,37.5C -0.5,35.8333 -0.5,34.1667 -0.5,32.5 Z"/></g>
<g><path style="opacity:0.631" fill="#000000" d="M 19.5,32.5 C 20.0776,36.935 18.4109,38.2683 14.5,36.5C 14.3838,33.0897 16.0504,31.7564 19.5,32.5 Z"/></g>
<g><path style="opacity:0.47" fill="#000000" d="M 14.5,36.5 C 14.1575,38.2252 13.1575,38.7252 11.5,38C 10.6634,36.9887 10.33,35.8221 10.5,34.5C 12.1993,34.5271 13.5326,35.1938 14.5,36.5 Z"/></g>
<g><path style="opacity:0.637" fill="#000000" d="M 60.5,34.5 C 61.5,34.5 62.5,34.5 63.5,34.5C 63.5,35.5 63.5,36.5 63.5,37.5C 55.8116,41.0078 48.4783,45.0078 41.5,49.5C 40.5084,49.3284 39.8417,49.6618 39.5,50.5C 30.6871,54.0718 22.3537,58.4051 14.5,63.5C 13.1667,63.5 11.8333,63.5 10.5,63.5C 10.5,62.5 10.5,61.5 10.5,60.5C 12.153,60.3404 13.4863,59.6737 14.5,58.5C 21.3152,55.9274 27.6485,52.5941 33.5,48.5C 34.4916,48.6716 35.1583,48.3382 35.5,47.5C 37.153,47.3404 38.4863,46.6737 39.5,45.5C 40.4916,45.6716 41.1583,45.3382 41.5,44.5C 42.4916,44.6716 43.1583,44.3382 43.5,43.5C 45.674,43.2503 47.3406,42.2503 48.5,40.5C 49.4916,40.6716 50.1583,40.3382 50.5,39.5C 51.4916,39.6716 52.1583,39.3382 52.5,38.5C 53.4916,38.6716 54.1583,38.3382 54.5,37.5C 55.4916,37.6716 56.1583,37.3382 56.5,36.5C 57.4916,36.6716 58.1583,36.3382 58.5,35.5C 59.4916,35.6716 60.1583,35.3382 60.5,34.5 Z"/></g>
<g><path style="opacity:0.597" fill="#000000" d="M 2.5,44.5 C 1.39105,44.4431 0.391047,44.1098 -0.5,43.5C -0.5,42.1667 -0.5,40.8333 -0.5,39.5C 2.13917,37.8231 3.80584,38.4898 4.5,41.5C 4.05758,42.7387 3.39092,43.7387 2.5,44.5 Z"/></g>
<g><path style="opacity:0.597" fill="#000000" d="M 15.5,38.5 C 19.0714,38.4077 20.2381,40.0743 19,43.5C 16.8422,44.677 15.3422,44.0103 14.5,41.5C 14.685,40.4163 15.0183,39.4163 15.5,38.5 Z"/></g>
<g><path style="opacity:0.592" fill="#000000" d="M 23.5,39.5 C 23.8417,40.3382 24.5084,40.6716 25.5,40.5C 25.8417,41.3382 26.5084,41.6716 27.5,41.5C 28.6594,43.2503 30.326,44.2503 32.5,44.5C 32.8417,45.3382 33.5084,45.6716 34.5,45.5C 34.8333,46.1667 35.1667,46.8333 35.5,47.5C 34.5084,47.3284 33.8417,47.6618 33.5,48.5C 28.313,47.0802 23.9797,44.4135 20.5,40.5C 21.325,39.6143 22.325,39.281 23.5,39.5 Z"/></g>
<g><path style="opacity:0.628" fill="#000000" d="M 2.5,44.5 C 5.5,44.1667 6.83333,45.5 6.5,48.5C 4.95819,49.3007 3.29152,49.634 1.5,49.5C 1.36596,47.7085 1.69929,46.0418 2.5,44.5 Z"/></g>
<g><path style="opacity:0.658" fill="#000000" d="M 12.5,44.5 C 15.7572,44.174 17.2572,45.5073 17,48.5C 13.3307,50.0093 11.8307,48.6759 12.5,44.5 Z"/></g>
<g><path style="opacity:0.597" fill="#000000" d="M 11.5,52.5 C 8.05044,53.2436 6.38377,51.9103 6.5,48.5C 10.8721,46.8311 12.5388,48.1644 11.5,52.5 Z"/></g>
<g><path style="opacity:0.62" fill="#000000" d="M 41.5,49.5 C 48.5499,53.6916 55.8833,57.3583 63.5,60.5C 63.5,61.5 63.5,62.5 63.5,63.5C 62.1667,63.5 60.8333,63.5 59.5,63.5C 52.8827,59.1869 45.8827,55.3536 38.5,52C 39.056,51.6174 39.3893,51.1174 39.5,50.5C 40.4916,50.6716 41.1583,50.3382 41.5,49.5 Z"/></g>
<g><path style="opacity:0.55" fill="#000000" d="M 11.5,52.5 C 12.4959,52.4142 13.3292,52.7476 14,53.5C 14.4935,55.1341 14.6602,56.8008 14.5,58.5C 12.6203,58.2291 11.287,58.8958 10.5,60.5C 9.54163,60.9528 8.7083,61.6195 8,62.5C 7.18216,57.2063 6.68216,57.2063 6.5,62.5C 5.5,62.5 4.5,62.5 3.5,62.5C 3.16363,58.8331 3.99697,55.4998 6,52.5C 8.08362,54.8632 9.91696,54.8632 11.5,52.5 Z"/></g>
</svg>
