<?xml version="1.0" encoding="UTF-8"?>
<!DOCTYPE svg PUBLIC "-//W3C//DTD SVG 1.1//EN" "http://www.w3.org/Graphics/SVG/1.1/DTD/svg11.dtd">
<svg xmlns="http://www.w3.org/2000/svg" version="1.1" width="512px" height="512px" style="shape-rendering:geometricPrecision; text-rendering:geometricPrecision; image-rendering:optimizeQuality; fill-rule:evenodd; clip-rule:evenodd" xmlns:xlink="http://www.w3.org/1999/xlink">
<g><path style="opacity:0.99" fill="#000000" d="M 85.5,31.5 C 177.501,31.3333 269.501,31.5 361.5,32C 381.333,37.1667 393.833,49.6667 399,69.5C 399.167,130.503 399.667,191.503 400.5,252.5C 419.539,259.568 438.539,266.735 457.5,274C 460.106,275.938 461.939,278.438 463,281.5C 463.667,307.833 463.667,334.167 463,360.5C 454.624,414.199 425.791,452.365 376.5,475C 371.716,477.113 366.716,478.446 361.5,479C 269.5,479.667 177.5,479.667 85.5,479C 65.6667,473.833 53.1667,461.333 48,441.5C 47.3333,317.5 47.3333,193.5 48,69.5C 53.3488,49.6518 65.8488,36.9852 85.5,31.5 Z M 95.5,63.5 C 180.834,63.3333 266.167,63.5 351.5,64C 360.667,65.1667 365.833,70.3333 367,79.5C 367.833,133.17 367.667,186.836 366.5,240.5C 362.223,239.394 357.89,239.228 353.5,240C 325.167,250.333 296.833,260.667 268.5,271C 224.833,271.333 181.167,271.667 137.5,272C 128.518,276.473 125.351,283.64 128,293.5C 129.833,298 133,301.167 137.5,303C 176.832,303.5 216.165,303.667 255.5,303.5C 255.333,322.17 255.5,340.836 256,359.5C 260.418,394.173 275.252,423.34 300.5,447C 232.167,447.667 163.833,447.667 95.5,447C 86.3333,445.833 81.1667,440.667 80,431.5C 79.3333,314.167 79.3333,196.833 80,79.5C 81.3459,70.3224 86.5125,64.9891 95.5,63.5 Z M 398.5,319.5 C 413.064,322.636 417.564,330.97 412,344.5C 394.833,361.667 377.667,378.833 360.5,396C 357.673,397.623 354.673,398.79 351.5,399.5C 348.327,398.79 345.327,397.623 342.5,396C 329.269,383.438 316.769,370.272 305,356.5C 302.91,344.752 307.743,337.752 319.5,335.5C 322.673,336.21 325.673,337.377 328.5,339C 336.014,346.681 343.681,354.181 351.5,361.5C 364.653,348.847 377.653,336.014 390.5,323C 393.158,321.522 395.825,320.355 398.5,319.5 Z"/></g>
<g><path style="opacity:0.991" fill="#000000" d="M 137.5,111.5 C 194.834,111.333 252.168,111.5 309.5,112C 318.482,116.473 321.649,123.64 319,133.5C 317.167,138 314,141.167 309.5,143C 252.167,143.667 194.833,143.667 137.5,143C 130.513,140.193 127.18,135.027 127.5,127.5C 127.302,119.885 130.635,114.551 137.5,111.5 Z"/></g>
<g><path style="opacity:0.991" fill="#000000" d="M 137.5,191.5 C 194.834,191.333 252.168,191.5 309.5,192C 318.482,196.473 321.649,203.64 319,213.5C 317.167,218 314,221.167 309.5,223C 252.167,223.667 194.833,223.667 137.5,223C 130.513,220.193 127.18,215.027 127.5,207.5C 127.302,199.885 130.635,194.551 137.5,191.5 Z"/></g>
<g><path style="opacity:0.978" fill="#000000" d="M 137.5,367.5 C 157.503,367.333 177.503,367.5 197.5,368C 206.482,372.473 209.649,379.64 207,389.5C 205.167,394 202,397.167 197.5,399C 177.5,399.667 157.5,399.667 137.5,399C 130.513,396.193 127.18,391.027 127.5,383.5C 127.302,375.885 130.635,370.551 137.5,367.5 Z"/></g>
</svg>
