<?xml version="1.0" encoding="UTF-8"?>
<!DOCTYPE svg PUBLIC "-//W3C//DTD SVG 1.1//EN" "http://www.w3.org/Graphics/SVG/1.1/DTD/svg11.dtd">
<svg xmlns="http://www.w3.org/2000/svg" version="1.1" width="512px" height="512px" style="shape-rendering:geometricPrecision; text-rendering:geometricPrecision; image-rendering:optimizeQuality; fill-rule:evenodd; clip-rule:evenodd" xmlns:xlink="http://www.w3.org/1999/xlink">
<g><path style="opacity:0.952" fill="#000000" d="M 327.5,-0.5 C 329.833,-0.5 332.167,-0.5 334.5,-0.5C 369.299,34.7987 404.299,69.9654 439.5,105C 425.833,105.667 412.167,105.667 398.5,105C 376,82.5 353.5,60 331,37.5C 308.5,60 286,82.5 263.5,105C 249.833,105.667 236.167,105.667 222.5,105C 257.701,69.9654 292.701,34.7987 327.5,-0.5 Z"/></g>
<g><path style="opacity:0.891" fill="#000000" d="M 301.5,90.5 C 303.857,90.3367 306.19,90.5034 308.5,91C 319.271,103.497 331.937,105.83 346.5,98C 348.833,95.6667 351.167,93.3333 353.5,91C 355.833,90.3333 358.167,90.3333 360.5,91C 365.167,95.6667 369.833,100.333 374.5,105C 345.5,105.667 316.5,105.667 287.5,105C 292.37,100.298 297.037,95.4646 301.5,90.5 Z"/></g>
<g><path style="opacity:1" fill="#000000" d="M 511.5,117.5 C 511.5,209.5 511.5,301.5 511.5,393.5C 510.711,393.783 510.044,394.283 509.5,395C 340.167,395.667 170.833,395.667 1.5,395C 0.955796,394.283 0.28913,393.783 -0.5,393.5C -0.5,301.5 -0.5,209.5 -0.5,117.5C 0.28913,117.217 0.955796,116.717 1.5,116C 170.833,115.333 340.167,115.333 509.5,116C 510.044,116.717 510.711,117.217 511.5,117.5 Z M 29.5,145.5 C 180.167,145.5 330.833,145.5 481.5,145.5C 481.5,218.833 481.5,292.167 481.5,365.5C 330.833,365.5 180.167,365.5 29.5,365.5C 29.5,292.167 29.5,218.833 29.5,145.5 Z M 254.5,180.5 C 287.849,182.243 311.349,198.243 325,228.5C 336.027,262.907 327.86,291.741 300.5,315C 270.5,335.667 240.5,335.667 210.5,315C 183.14,291.741 174.973,262.907 186,228.5C 199.372,198.957 222.205,182.957 254.5,180.5 Z M 220.5,228.5 C 224.846,228.334 229.179,228.501 233.5,229C 238.609,232.366 239.776,236.866 237,242.5C 236.097,243.701 234.931,244.535 233.5,245C 229.179,245.499 224.846,245.666 220.5,245.5C 220.5,239.833 220.5,234.167 220.5,228.5 Z M 114.5,230.5 C 131.677,233.174 139.844,243.174 139,260.5C 131.739,278.801 119.239,283.968 101.5,276C 86.8333,262.333 86.8333,248.667 101.5,235C 105.715,232.763 110.048,231.263 114.5,230.5 Z M 395.5,230.5 C 412.677,233.174 420.844,243.174 420,260.5C 412.739,278.801 400.239,283.968 382.5,276C 367.833,262.333 367.833,248.667 382.5,235C 386.715,232.763 391.048,231.263 395.5,230.5 Z M 282.5,244.5 C 287.487,243.349 290.987,245.016 293,249.5C 295.223,256.05 294.723,262.384 291.5,268.5C 288.035,271.122 284.535,271.122 281,268.5C 280.333,261.167 280.333,253.833 281,246.5C 281.717,245.956 282.217,245.289 282.5,244.5 Z"/></g>
<g><path style="opacity:0.986" fill="#000000" d="M 90.5,165.5 C 200.501,165.333 310.501,165.5 420.5,166C 421.126,166.75 421.626,167.584 422,168.5C 420.277,183.383 425.777,194.55 438.5,202C 446.1,204.342 453.6,205.842 461,206.5C 461.667,239.167 461.667,271.833 461,304.5C 457.826,306.621 454.493,306.954 451,305.5C 439.527,306.902 430.86,312.568 425,322.5C 423.339,330.027 421.839,337.527 420.5,345C 310.5,345.667 200.5,345.667 90.5,345C 89.8742,344.25 89.3742,343.416 89,342.5C 90.7227,327.617 85.2227,316.45 72.5,309C 64.9002,306.658 57.4002,305.158 50,304.5C 49.3333,271.833 49.3333,239.167 50,206.5C 57.4002,205.842 64.9002,204.342 72.5,202C 85.2227,194.55 90.7227,183.383 89,168.5C 89.5133,167.473 90.0133,166.473 90.5,165.5 Z M 254.5,180.5 C 222.205,182.957 199.372,198.957 186,228.5C 174.973,262.907 183.14,291.741 210.5,315C 240.5,335.667 270.5,335.667 300.5,315C 327.86,291.741 336.027,262.907 325,228.5C 311.349,198.243 287.849,182.243 254.5,180.5 Z M 220.5,228.5 C 220.5,234.167 220.5,239.833 220.5,245.5C 224.846,245.666 229.179,245.499 233.5,245C 234.931,244.535 236.097,243.701 237,242.5C 239.776,236.866 238.609,232.366 233.5,229C 229.179,228.501 224.846,228.334 220.5,228.5 Z M 114.5,230.5 C 110.048,231.263 105.715,232.763 101.5,235C 86.8333,248.667 86.8333,262.333 101.5,276C 119.239,283.968 131.739,278.801 139,260.5C 139.844,243.174 131.677,233.174 114.5,230.5 Z M 395.5,230.5 C 391.048,231.263 386.715,232.763 382.5,235C 367.833,248.667 367.833,262.333 382.5,276C 400.239,283.968 412.739,278.801 420,260.5C 420.844,243.174 412.677,233.174 395.5,230.5 Z M 282.5,244.5 C 282.217,245.289 281.717,245.956 281,246.5C 280.333,253.833 280.333,261.167 281,268.5C 284.535,271.122 288.035,271.122 291.5,268.5C 294.723,262.384 295.223,256.05 293,249.5C 290.987,245.016 287.487,243.349 282.5,244.5 Z"/></g>
<g><path style="opacity:0.932" fill="#000000" d="M 203.5,214.5 C 215.536,214.224 227.536,214.724 239.5,216C 254.179,220.757 259.012,230.59 254,245.5C 251.326,249.34 248.159,252.673 244.5,255.5C 249.652,264.136 253.985,273.136 257.5,282.5C 251.491,282.666 245.491,282.499 239.5,282C 235.706,274.911 232.039,267.745 228.5,260.5C 225.914,259.52 223.247,259.187 220.5,259.5C 220.5,267.167 220.5,274.833 220.5,282.5C 214.833,282.5 209.167,282.5 203.5,282.5C 203.5,259.833 203.5,237.167 203.5,214.5 Z M 220.5,228.5 C 220.5,234.167 220.5,239.833 220.5,245.5C 224.846,245.666 229.179,245.499 233.5,245C 234.931,244.535 236.097,243.701 237,242.5C 239.776,236.866 238.609,232.366 233.5,229C 229.179,228.501 224.846,228.334 220.5,228.5 Z"/></g>
<g><path style="opacity:0.92" fill="#000000" d="M 285.5,231.5 C 299.475,229.646 307.642,235.646 310,249.5C 312.417,261 309.917,271.166 302.5,280C 295.415,284.46 288.248,284.626 281,280.5C 280.5,287.492 280.334,294.492 280.5,301.5C 274.833,301.5 269.167,301.5 263.5,301.5C 263.5,278.5 263.5,255.5 263.5,232.5C 268.833,232.5 274.167,232.5 279.5,232.5C 279.351,233.552 279.517,234.552 280,235.5C 281.5,233.531 283.333,232.198 285.5,231.5 Z M 282.5,244.5 C 282.217,245.289 281.717,245.956 281,246.5C 280.333,253.833 280.333,261.167 281,268.5C 284.535,271.122 288.035,271.122 291.5,268.5C 294.723,262.384 295.223,256.05 293,249.5C 290.987,245.016 287.487,243.349 282.5,244.5 Z"/></g>
<g><path style="opacity:0.952" fill="#000000" d="M 183.5,511.5 C 181.167,511.5 178.833,511.5 176.5,511.5C 141.701,476.201 106.701,441.035 71.5,406C 85.1667,405.333 98.8333,405.333 112.5,406C 135,428.5 157.5,451 180,473.5C 202.5,451 225,428.5 247.5,406C 261.167,405.333 274.833,405.333 288.5,406C 253.299,441.035 218.299,476.201 183.5,511.5 Z"/></g>
<g><path style="opacity:0.891" fill="#000000" d="M 136.5,406.5 C 165.33,405.336 194.33,405.17 223.5,406C 219.167,410.333 214.833,414.667 210.5,419C 207.97,420.422 205.303,420.755 202.5,420C 191.729,407.503 179.063,405.17 164.5,413C 162.167,415.333 159.833,417.667 157.5,420C 155.167,420.667 152.833,420.667 150.5,420C 145.965,415.297 141.298,410.797 136.5,406.5 Z"/></g>
</svg>
