<?xml version="1.0" encoding="UTF-8"?>
<!DOCTYPE svg PUBLIC "-//W3C//DTD SVG 1.1//EN" "http://www.w3.org/Graphics/SVG/1.1/DTD/svg11.dtd">
<svg xmlns="http://www.w3.org/2000/svg" version="1.1" width="512px" height="512px" style="shape-rendering:geometricPrecision; text-rendering:geometricPrecision; image-rendering:optimizeQuality; fill-rule:evenodd; clip-rule:evenodd" xmlns:xlink="http://www.w3.org/1999/xlink">
<g><path style="opacity:0.979" fill="#000000" d="M 91.5,76.5 C 97.3259,76.157 99.8259,78.8236 99,84.5C 93.1575,92.4885 94.8242,98.1552 104,101.5C 107.412,99.9173 110.912,98.584 114.5,97.5C 116.374,97.3898 117.874,98.0564 119,99.5C 119.667,101.833 119.667,104.167 119,106.5C 116.038,109.399 112.538,111.399 108.5,112.5C 107.503,119.134 107.17,125.8 107.5,132.5C 124.99,136.157 135.157,146.824 138,164.5C 138.5,174.161 138.666,183.828 138.5,193.5C 142.846,193.334 147.179,193.501 151.5,194C 157.869,197.417 160.203,202.75 158.5,210C 158.593,213.95 158.093,217.784 157,221.5C 152.667,225.833 148.333,230.167 144,234.5C 143.5,260.165 143.333,285.831 143.5,311.5C 148.214,311.173 152.88,311.507 157.5,312.5C 150.808,333.986 147.808,355.986 148.5,378.5C 137.185,377.675 130.352,382.675 128,393.5C 127.501,398.823 127.334,404.156 127.5,409.5C 120.11,410.388 115.277,414.388 113,421.5C 112.5,434.496 112.333,447.496 112.5,460.5C 91.8333,460.5 71.1667,460.5 50.5,460.5C 50.6666,428.165 50.5,395.832 50,363.5C 42,356.833 34,350.167 26,343.5C 24,334.5 24,325.5 26,316.5C 27.5429,314.622 29.3762,313.122 31.5,312C 41.1609,311.5 50.8276,311.334 60.5,311.5C 60.6666,286.164 60.5,260.831 60,235.5C 55.2993,231.134 50.966,226.467 47,221.5C 45.4055,214.274 45.0722,206.94 46,199.5C 47.2506,196.619 49.4173,194.786 52.5,194C 56.8206,193.501 61.1539,193.334 65.5,193.5C 65.3335,183.161 65.5002,172.828 66,162.5C 69.3933,145.607 79.56,135.607 96.5,132.5C 96.6663,125.492 96.4996,118.492 96,111.5C 85.7425,105.649 82.0759,96.9824 85,85.5C 86.6749,82.0149 88.8416,79.0149 91.5,76.5 Z M 98.5,281.5 C 105.562,281.115 111.062,283.782 115,289.5C 116.391,296.746 116.891,304.079 116.5,311.5C 113.5,311.5 110.5,311.5 107.5,311.5C 107.666,305.491 107.499,299.491 107,293.5C 103.667,289.5 100.333,289.5 97,293.5C 96.5005,299.491 96.3338,305.491 96.5,311.5C 93.5,311.5 90.5,311.5 87.5,311.5C 87.3337,304.825 87.5004,298.158 88,291.5C 90.1059,286.557 93.6059,283.224 98.5,281.5 Z"/></g>
<g><path style="opacity:0.926" fill="#000000" d="M 290.5,91.5 C 296.811,102.234 301.311,113.901 304,126.5C 304.174,133.305 303.174,139.971 301,146.5C 300.333,150.5 300.333,154.5 301,158.5C 304.014,169.043 307.514,179.376 311.5,189.5C 298.167,189.5 284.833,189.5 271.5,189.5C 274.366,180.093 277.533,170.76 281,161.5C 282.967,152.674 282.3,144.007 279,135.5C 278.333,132.167 278.333,128.833 279,125.5C 281.996,113.85 285.83,102.517 290.5,91.5 Z"/></g>
<g><path style="opacity:0.991" fill="#000000" d="M 270.5,198.5 C 284.504,198.333 298.504,198.5 312.5,199C 319.317,204.906 326.317,210.573 333.5,216C 385.106,242.981 414.94,285.481 423,343.5C 424.471,355.123 425.304,366.79 425.5,378.5C 336.167,378.5 246.833,378.5 157.5,378.5C 156.316,333.529 169.149,293.195 196,257.5C 202.167,251.333 208.333,245.167 214.5,239C 233.907,226.411 252.574,212.911 270.5,198.5 Z"/></g>
<g><path style="opacity:0.987" fill="#000000" d="M 139.5,388.5 C 240.834,388.333 342.167,388.5 443.5,389C 444.126,389.75 444.626,390.584 445,391.5C 445.5,400.494 445.666,409.494 445.5,418.5C 449.182,418.335 452.848,418.501 456.5,419C 457.931,419.465 459.097,420.299 460,421.5C 460.5,434.496 460.667,447.496 460.5,460.5C 409.833,460.5 359.167,460.5 308.5,460.5C 308.666,453.492 308.5,446.492 308,439.5C 301.799,425.993 291.965,422.16 278.5,428C 273.219,431.382 270.052,436.216 269,442.5C 268.501,448.491 268.334,454.491 268.5,460.5C 219.5,460.5 170.5,460.5 121.5,460.5C 121.333,447.829 121.5,435.162 122,422.5C 122.5,420.667 123.667,419.5 125.5,419C 129.486,418.501 133.486,418.334 137.5,418.5C 137.334,409.161 137.5,399.827 138,390.5C 138.717,389.956 139.217,389.289 139.5,388.5 Z"/></g>
<g><path style="opacity:0.938" fill="#000000" d="M 284.5,434.5 C 291.445,432.775 296.278,435.108 299,441.5C 299.5,447.825 299.666,454.158 299.5,460.5C 292.5,460.5 285.5,460.5 278.5,460.5C 278.334,453.825 278.5,447.158 279,440.5C 280.36,437.977 282.193,435.977 284.5,434.5 Z"/></g>
</svg>
