<?xml version="1.0" encoding="UTF-8"?>
<!DOCTYPE svg PUBLIC "-//W3C//DTD SVG 1.1//EN" "http://www.w3.org/Graphics/SVG/1.1/DTD/svg11.dtd">
<svg xmlns="http://www.w3.org/2000/svg" version="1.1" width="64px" height="64px" style="shape-rendering:geometricPrecision; text-rendering:geometricPrecision; image-rendering:optimizeQuality; fill-rule:evenodd; clip-rule:evenodd" xmlns:xlink="http://www.w3.org/1999/xlink">
<g><path style="opacity:0.915" fill="#000000" d="M 27.5,4.5 C 39.7961,3.63032 45.6294,9.29699 45,21.5C 41.7476,30.0444 35.581,33.211 26.5,31C 16.946,25.511 15.1127,18.011 21,8.5C 23.0948,6.87527 25.2615,5.54193 27.5,4.5 Z"/></g>
<g><path style="opacity:0.923" fill="#000000" d="M 20.5,33.5 C 29.2354,33.1241 37.9021,33.6241 46.5,35C 56.7547,44.132 55.4214,51.4653 42.5,57C 35.1667,59 27.8333,59 20.5,57C 11.1338,54.344 7.96718,48.5106 11,39.5C 13.8552,36.7731 17.0219,34.7731 20.5,33.5 Z"/></g>
</svg>
