<?xml version="1.0" encoding="UTF-8"?>
<!DOCTYPE svg PUBLIC "-//W3C//DTD SVG 1.1//EN" "http://www.w3.org/Graphics/SVG/1.1/DTD/svg11.dtd">
<svg xmlns="http://www.w3.org/2000/svg" version="1.1" width="64px" height="64px" style="shape-rendering:geometricPrecision; text-rendering:geometricPrecision; image-rendering:optimizeQuality; fill-rule:evenodd; clip-rule:evenodd" xmlns:xlink="http://www.w3.org/1999/xlink">
<g><path style="opacity:0.908" fill="#000000" d="M 10.5,9.5 C 17.175,9.33375 23.8417,9.50042 30.5,10C 32.0368,11.1096 32.7035,12.6096 32.5,14.5C 39.8333,14.5 47.1667,14.5 54.5,14.5C 54.5,25.8333 54.5,37.1667 54.5,48.5C 51.7338,48.6697 49.0672,49.3364 46.5,50.5C 41.9675,48.888 37.3008,48.2213 32.5,48.5C 32.7035,50.3904 32.0368,51.8904 30.5,53C 23.8333,53.6667 17.1667,53.6667 10.5,53C 10,52.5 9.5,52 9,51.5C 8.33333,38.1667 8.33333,24.8333 9,11.5C 9.71719,10.9558 10.2172,10.2891 10.5,9.5 Z M 17.5,11.5 C 19.604,11.2011 21.604,11.5344 23.5,12.5C 22.5,12.8333 21.5,13.1667 20.5,13.5C 18.9704,13.3601 17.9704,12.6935 17.5,11.5 Z M 27.5,48.5 C 22.3814,47.8969 17.7147,48.5636 13.5,50.5C 12.2502,50.4226 11.4169,49.756 11,48.5C 10.3333,37.1667 10.3333,25.8333 11,14.5C 12.0985,11.9557 13.2652,11.9557 14.5,14.5C 19.6459,16.1954 24.3126,15.5287 28.5,12.5C 29.4756,14.1233 28.9756,15.4567 27,16.5C 26.1917,27.2432 26.3583,37.9099 27.5,48.5 Z M 31.5,16.5 C 38.5,16.5 45.5,16.5 52.5,16.5C 52.5,24.1667 52.5,31.8333 52.5,39.5C 44.5,39.5 36.5,39.5 28.5,39.5C 28.3337,32.825 28.5004,26.1583 29,19.5C 29.6979,18.3094 30.5313,17.3094 31.5,16.5 Z M 39.5,21.5 C 41.4352,22.1495 43.4352,22.4828 45.5,22.5C 46.8333,25.8333 46.8333,29.1667 45.5,32.5C 42.1667,33.8333 38.8333,33.8333 35.5,32.5C 34.1667,29.1667 34.1667,25.8333 35.5,22.5C 37.099,22.7678 38.4324,22.4345 39.5,21.5 Z M 31.5,41.5 C 38.5,41.5 45.5,41.5 52.5,41.5C 52.5,43.1667 52.5,44.8333 52.5,46.5C 49.2027,46.6713 48.8694,46.0046 51.5,44.5C 48,44.1667 44.5,43.8333 41,43.5C 37.0688,43.5442 33.4022,44.2109 30,45.5C 29.516,43.8067 30.016,42.4733 31.5,41.5 Z M 27.5,48.5 C 30.1667,49.1667 30.1667,49.8333 27.5,50.5C 27.5,49.8333 27.5,49.1667 27.5,48.5 Z"/></g>
<g><path style="opacity:0.642" fill="#000000" d="M 38.5,17.5 C 41.6839,18.6427 45.0173,19.3094 48.5,19.5C 48.2843,22.4317 48.951,25.0983 50.5,27.5C 48.951,29.9017 48.2843,32.5683 48.5,35.5C 45.5683,35.2843 42.9017,35.951 40.5,37.5C 38.0983,35.951 35.4317,35.2843 32.5,35.5C 32.7157,32.5683 32.049,29.9017 30.5,27.5C 32.049,25.0983 32.7157,22.4317 32.5,19.5C 35.0101,19.9465 37.0101,19.2798 38.5,17.5 Z M 39.5,21.5 C 38.4324,22.4345 37.099,22.7678 35.5,22.5C 34.1667,25.8333 34.1667,29.1667 35.5,32.5C 38.8333,33.8333 42.1667,33.8333 45.5,32.5C 46.8333,29.1667 46.8333,25.8333 45.5,22.5C 43.4352,22.4828 41.4352,22.1495 39.5,21.5 Z"/></g>
<g><path style="opacity:0.967" fill="#000000" d="M 27.5,48.5 C 27.5,49.1667 27.5,49.8333 27.5,50.5C 22.8333,50.5 18.1667,50.5 13.5,50.5C 17.7147,48.5636 22.3814,47.8969 27.5,48.5 Z"/></g>
</svg>
