<?xml version="1.0" encoding="UTF-8"?>
<!DOCTYPE svg PUBLIC "-//W3C//DTD SVG 1.1//EN" "http://www.w3.org/Graphics/SVG/1.1/DTD/svg11.dtd">
<svg xmlns="http://www.w3.org/2000/svg" version="1.1" width="64px" height="64px" style="shape-rendering:geometricPrecision; text-rendering:geometricPrecision; image-rendering:optimizeQuality; fill-rule:evenodd; clip-rule:evenodd" xmlns:xlink="http://www.w3.org/1999/xlink">
<g><path style="opacity:0.878" fill="#000000" d="M 46.5,7.5 C 51.6163,8.14947 56.6163,9.31614 61.5,11C 62.4061,12.6995 62.7394,14.5328 62.5,16.5C 59.6872,16.5481 57.0205,17.2147 54.5,18.5C 52.4218,25.5314 47.7551,29.198 40.5,29.5C 40.5893,32.7086 40.256,35.8752 39.5,39C 39.9637,44.8123 41.297,50.3123 43.5,55.5C 41.2075,55.7564 39.0408,55.4231 37,54.5C 35.8921,48.8527 34.8921,43.1861 34,37.5C 33.3333,41.8333 33.3333,46.1667 34,50.5C 35.2692,51.9047 35.7692,53.5714 35.5,55.5C 33.2075,55.7564 31.0408,55.4231 29,54.5C 28.2485,47.4308 27.9151,40.4308 28,33.5C 24.2709,35.2265 20.4376,35.5598 16.5,34.5C 15.3527,34.8178 14.5194,35.4844 14,36.5C 13.3333,38.8333 13.3333,41.1667 14,43.5C 14.9982,47.6192 16.1649,51.6192 17.5,55.5C 15.2075,55.7564 13.0408,55.4231 11,54.5C 10.1072,49.5806 8.6072,44.9139 6.5,40.5C 6.16667,42 5.83333,43.5 5.5,45C 6.12991,48.2287 6.62991,51.3954 7,54.5C 5,55.8333 3,55.8333 1,54.5C 0.805414,46.2518 0.638747,38.0851 0.5,30C 0.464017,27.3701 0.964017,24.8701 2,22.5C 5.86892,18.9662 9.36892,15.1328 12.5,11C 16.6389,8.14354 20.9723,7.8102 25.5,10C 30.892,12.2755 35.892,15.2755 40.5,19C 41.5,19.6667 42.5,19.6667 43.5,19C 45.2335,15.3639 46.2335,11.5305 46.5,7.5 Z"/></g>
</svg>
