<?xml version="1.0" encoding="UTF-8"?>
<!DOCTYPE svg PUBLIC "-//W3C//DTD SVG 1.1//EN" "http://www.w3.org/Graphics/SVG/1.1/DTD/svg11.dtd">
<svg xmlns="http://www.w3.org/2000/svg" version="1.1" width="64px" height="64px" style="shape-rendering:geometricPrecision; text-rendering:geometricPrecision; image-rendering:optimizeQuality; fill-rule:evenodd; clip-rule:evenodd" xmlns:xlink="http://www.w3.org/1999/xlink">
<g><path style="opacity:0.84" fill="#000000" d="M 27.5,1.5 C 41.7966,1.12646 49.4632,8.12646 50.5,22.5C 49.9849,26.2424 49.1516,29.9091 48,33.5C 44.863,38.1082 42.5297,43.1082 41,48.5C 38.3535,52.3135 35.1868,55.6469 31.5,58.5C 27.8132,55.6469 24.6465,52.3135 22,48.5C 20.4703,43.1082 18.137,38.1082 15,33.5C 9.90292,18.9243 14.0696,8.25766 27.5,1.5 Z M 30.5,10.5 C 36.3262,12.4085 40.1595,16.4085 42,22.5C 45.5982,32.9723 42.0982,39.639 31.5,42.5C 20.922,39.6811 17.422,33.0145 21,22.5C 22.5368,17.035 25.7034,13.035 30.5,10.5 Z"/></g>
<g><path style="opacity:0.721" fill="#000000" d="M 29.5,12.5 C 33.227,12.1951 35.8937,13.6951 37.5,17C 33.4589,17.8265 29.4589,17.6599 25.5,16.5C 26.5487,14.7844 27.882,13.4511 29.5,12.5 Z"/></g>
<g><path style="opacity:0.86" fill="#000000" d="M 16.5,41.5 C 19.7705,48.9585 24.7705,55.2918 31.5,60.5C 38.3658,55.7607 43.0325,49.4274 45.5,41.5C 54.6956,44.1702 58.8623,50.1702 58,59.5C 57.5,60 57,60.5 56.5,61C 39.8333,61.6667 23.1667,61.6667 6.5,61C 3.89196,56.8468 4.05863,52.6801 7,48.5C 9.79005,45.535 12.9567,43.2016 16.5,41.5 Z"/></g>
</svg>
