<?xml version="1.0" encoding="UTF-8"?>
<!DOCTYPE svg PUBLIC "-//W3C//DTD SVG 1.1//EN" "http://www.w3.org/Graphics/SVG/1.1/DTD/svg11.dtd">
<svg xmlns="http://www.w3.org/2000/svg" version="1.1" width="512px" height="512px" style="shape-rendering:geometricPrecision; text-rendering:geometricPrecision; image-rendering:optimizeQuality; fill-rule:evenodd; clip-rule:evenodd" xmlns:xlink="http://www.w3.org/1999/xlink">
<g><path style="opacity:0.987" fill="#000000" d="M 10.5,-0.5 C 148.167,-0.5 285.833,-0.5 423.5,-0.5C 426.2,1.04602 428.033,3.37935 429,6.5C 429.5,37.4982 429.667,68.4982 429.5,99.5C 453.169,99.3334 476.836,99.5 500.5,100C 502.333,101.167 503.833,102.667 505,104.5C 505.667,227.5 505.667,350.5 505,473.5C 499.651,493.348 487.151,506.015 467.5,511.5C 326.167,511.5 184.833,511.5 43.5,511.5C 23.9629,506.45 11.4629,494.117 6,474.5C 5.33333,317.833 5.33333,161.167 6,4.5C 7.36569,2.63834 8.86569,0.971672 10.5,-0.5 Z M 25.5,19.5 C 153.167,19.5 280.833,19.5 408.5,19.5C 408.333,78.1676 408.5,136.834 409,195.5C 413.005,202.502 418.505,204.002 425.5,200C 427.487,198.681 428.654,196.848 429,194.5C 429.5,169.502 429.667,144.502 429.5,119.5C 448.167,119.5 466.833,119.5 485.5,119.5C 485.667,233.834 485.5,348.167 485,462.5C 482.518,483.294 471.018,492.461 450.5,490C 441.2,487.27 434.7,481.436 431,472.5C 429.681,407.878 429.014,343.211 429,278.5C 425.423,271.447 419.923,269.614 412.5,273C 410.951,274.214 409.785,275.714 409,277.5C 408.333,342.167 408.333,406.833 409,471.5C 410.395,478.287 412.895,484.621 416.5,490.5C 355.833,490.833 295.167,491.167 234.5,491.5C 171.803,491.656 109.136,491.156 46.5,490C 33.6612,485.826 26.8279,476.993 26,463.5C 25.5,315.5 25.3333,167.5 25.5,19.5 Z M 200.5,81.5 C 206.105,80.9081 211.439,81.7415 216.5,84C 221.275,90.4918 220.275,95.8251 213.5,100C 209.179,100.499 204.846,100.666 200.5,100.5C 200.5,94.1667 200.5,87.8333 200.5,81.5 Z M 80.5,232.5 C 93.5,232.5 106.5,232.5 119.5,232.5C 119.5,245.5 119.5,258.5 119.5,271.5C 106.5,271.5 93.5,271.5 80.5,271.5C 80.5,258.5 80.5,245.5 80.5,232.5 Z M 80.5,352.5 C 93.5,352.5 106.5,352.5 119.5,352.5C 119.5,365.5 119.5,378.5 119.5,391.5C 106.5,391.5 93.5,391.5 80.5,391.5C 80.5,378.5 80.5,365.5 80.5,352.5 Z"/></g>
<g><path style="opacity:0.942" fill="#000000" d="M 57.5,60.5 C 71.1707,60.3334 84.8374,60.5001 98.5,61C 103.55,62.4338 105.883,65.7671 105.5,71C 105.802,75.7316 103.802,79.0649 99.5,81C 95.8484,81.4986 92.1817,81.6653 88.5,81.5C 88.6666,105.836 88.5,130.169 88,154.5C 86.5662,159.55 83.2329,161.883 78,161.5C 72.7671,161.883 69.4338,159.55 68,154.5C 67.5,130.169 67.3334,105.836 67.5,81.5C 57.8615,83.8573 51.8615,80.3573 49.5,71C 50.1427,65.8686 52.8094,62.3686 57.5,60.5 Z"/></g>
<g><path style="opacity:0.942" fill="#000000" d="M 122.5,60.5 C 136.171,60.3334 149.837,60.5001 163.5,61C 170.053,63.7299 172.22,68.5632 170,75.5C 169.215,77.286 168.049,78.786 166.5,80C 156.271,81.4512 145.938,81.9512 135.5,81.5C 135.5,87.8333 135.5,94.1667 135.5,100.5C 142.257,100.123 148.924,100.623 155.5,102C 160.63,106.218 161.796,111.384 159,117.5C 157.786,119.049 156.286,120.215 154.5,121C 148.175,121.5 141.842,121.666 135.5,121.5C 135.5,127.833 135.5,134.167 135.5,140.5C 144.839,140.334 154.173,140.5 163.5,141C 170.053,143.73 172.22,148.563 170,155.5C 168.833,158 167,159.833 164.5,161C 150.167,161.667 135.833,161.667 121.5,161C 117.479,159.132 115.313,155.965 115,151.5C 114.333,124.5 114.333,97.5 115,70.5C 115.471,65.5422 117.971,62.2089 122.5,60.5 Z"/></g>
<g><path style="opacity:0.943" fill="#000000" d="M 187.5,60.5 C 196.506,60.3336 205.506,60.5002 214.5,61C 236.36,66.5642 244.527,80.3976 239,102.5C 235.905,108.926 231.405,114.093 225.5,118C 230.461,127.422 235.294,136.922 240,146.5C 241.998,157.5 237.498,162.333 226.5,161C 224.376,159.878 222.543,158.378 221,156.5C 215.333,145.167 209.667,133.833 204,122.5C 202.989,121.663 201.822,121.33 200.5,121.5C 200.959,133.601 200.459,145.601 199,157.5C 193.333,162.833 187.667,162.833 182,157.5C 181.027,155.608 180.36,153.608 180,151.5C 179.333,124.5 179.333,97.5 180,70.5C 180.471,65.5422 182.971,62.2089 187.5,60.5 Z M 200.5,81.5 C 200.5,87.8333 200.5,94.1667 200.5,100.5C 204.846,100.666 209.179,100.499 213.5,100C 220.275,95.8251 221.275,90.4918 216.5,84C 211.439,81.7415 206.105,80.9081 200.5,81.5 Z"/></g>
<g><path style="opacity:0.949" fill="#000000" d="M 257.5,60.5 C 261.059,60.4081 264.392,61.2415 267.5,63C 273.333,70.1667 279.167,77.3333 285,84.5C 291.541,77.6281 297.707,70.4614 303.5,63C 309.045,59.5103 314.211,60.0103 319,64.5C 320.651,94.7474 320.984,125.081 320,155.5C 317.081,161.025 312.581,162.858 306.5,161C 304,159.833 302.167,158 301,155.5C 299.721,137.552 299.054,119.552 299,101.5C 289.325,115.047 279.991,114.714 271,100.5C 270.667,118.833 270.333,137.167 270,155.5C 267.081,161.025 262.581,162.858 256.5,161C 252.479,159.132 250.313,155.965 250,151.5C 249.333,124.5 249.333,97.5 250,70.5C 250.471,65.5422 252.971,62.2089 257.5,60.5 Z"/></g>
<g><path style="opacity:0.937" fill="#000000" d="M 354.5,60.5 C 362.64,60.3612 370.306,62.1946 377.5,66C 381.259,69.7434 382.426,74.2434 381,79.5C 378.917,83.1294 375.75,85.1294 371.5,85.5C 366.584,83.6919 361.584,82.5253 356.5,82C 348.154,86.7357 347.487,92.4024 354.5,99C 381.664,106.825 389.831,123.658 379,149.5C 365.977,162.999 351.143,165.165 334.5,156C 329.152,149.363 329.819,143.363 336.5,138C 339.833,137.333 343.167,137.333 346.5,138C 352.141,141.716 357.308,141.216 362,136.5C 364.273,131.751 363.439,127.585 359.5,124C 350.857,121.263 343.024,117.096 336,111.5C 326.418,98.4206 326.085,85.0873 335,71.5C 340.341,65.5845 346.841,61.9178 354.5,60.5 Z"/></g>
<g><path style="opacity:0.952" fill="#000000" d="M 67.5,211.5 C 89.1692,211.333 110.836,211.5 132.5,212C 136.77,213.27 139.27,216.104 140,220.5C 140.667,241.5 140.667,262.5 140,283.5C 139.768,286.738 138.268,289.238 135.5,291C 112.255,292.646 88.9214,292.979 65.5,292C 63.714,291.215 62.214,290.049 61,288.5C 59.354,264.921 59.0206,241.255 60,217.5C 61.7074,214.41 64.2074,212.41 67.5,211.5 Z M 80.5,232.5 C 80.5,245.5 80.5,258.5 80.5,271.5C 93.5,271.5 106.5,271.5 119.5,271.5C 119.5,258.5 119.5,245.5 119.5,232.5C 106.5,232.5 93.5,232.5 80.5,232.5 Z"/></g>
<g><path style="opacity:0.948" fill="#000000" d="M 167.5,211.5 C 234.167,211.333 300.834,211.5 367.5,212C 374.494,215.154 376.661,220.321 374,227.5C 372.457,229.378 370.624,230.878 368.5,232C 300.833,232.667 233.167,232.667 165.5,232C 161.198,230.065 159.198,226.732 159.5,222C 159.659,216.488 162.326,212.988 167.5,211.5 Z"/></g>
<g><path style="opacity:0.882" fill="#000000" d="M 414.5,226.5 C 426.752,225.349 431.252,230.682 428,242.5C 420.823,249.529 414.489,248.863 409,240.5C 407.268,234.314 409.101,229.647 414.5,226.5 Z"/></g>
<g><path style="opacity:0.946" fill="#000000" d="M 167.5,256.5 C 219.168,256.333 270.834,256.5 322.5,257C 329.494,260.154 331.661,265.321 329,272.5C 327.457,274.378 325.624,275.878 323.5,277C 270.833,277.667 218.167,277.667 165.5,277C 161.198,275.065 159.198,271.732 159.5,267C 159.659,261.488 162.326,257.988 167.5,256.5 Z"/></g>
<g><path style="opacity:0.952" fill="#000000" d="M 67.5,331.5 C 89.1692,331.333 110.836,331.5 132.5,332C 136.77,333.27 139.27,336.104 140,340.5C 140.667,361.5 140.667,382.5 140,403.5C 139.768,406.738 138.268,409.238 135.5,411C 112.255,412.646 88.9214,412.979 65.5,412C 63.714,411.215 62.214,410.049 61,408.5C 59.354,384.921 59.0206,361.255 60,337.5C 61.7074,334.41 64.2074,332.41 67.5,331.5 Z M 80.5,352.5 C 80.5,365.5 80.5,378.5 80.5,391.5C 93.5,391.5 106.5,391.5 119.5,391.5C 119.5,378.5 119.5,365.5 119.5,352.5C 106.5,352.5 93.5,352.5 80.5,352.5 Z"/></g>
<g><path style="opacity:0.948" fill="#000000" d="M 167.5,331.5 C 234.167,331.333 300.834,331.5 367.5,332C 374.494,335.154 376.661,340.321 374,347.5C 372.457,349.378 370.624,350.878 368.5,352C 300.833,352.667 233.167,352.667 165.5,352C 161.198,350.065 159.198,346.732 159.5,342C 159.659,336.488 162.326,332.988 167.5,331.5 Z"/></g>
<g><path style="opacity:0.946" fill="#000000" d="M 167.5,376.5 C 219.168,376.333 270.834,376.5 322.5,377C 329.494,380.154 331.661,385.321 329,392.5C 327.457,394.378 325.624,395.878 323.5,397C 270.833,397.667 218.167,397.667 165.5,397C 161.198,395.065 159.198,391.732 159.5,387C 159.659,381.488 162.326,377.988 167.5,376.5 Z"/></g>
</svg>
