<?xml version="1.0" encoding="UTF-8"?>
<!DOCTYPE svg PUBLIC "-//W3C//DTD SVG 1.1//EN" "http://www.w3.org/Graphics/SVG/1.1/DTD/svg11.dtd">
<svg xmlns="http://www.w3.org/2000/svg" version="1.1" width="512px" height="512px" style="shape-rendering:geometricPrecision; text-rendering:geometricPrecision; image-rendering:optimizeQuality; fill-rule:evenodd; clip-rule:evenodd" xmlns:xlink="http://www.w3.org/1999/xlink">
<g><path style="opacity:0.971" fill="#000000" d="M 125.5,1.5 C 155.378,-1.23911 175.712,11.2609 186.5,39C 152.835,39.5 119.168,39.6667 85.5,39.5C 91.3732,18.9597 104.707,6.29298 125.5,1.5 Z"/></g>
<g><path style="opacity:0.971" fill="#000000" d="M 365.5,1.5 C 395.378,-1.23911 415.712,11.2609 426.5,39C 392.835,39.5 359.168,39.6667 325.5,39.5C 331.373,18.9597 344.707,6.29298 365.5,1.5 Z"/></g>
<g><path style="opacity:0.986" fill="#000000" d="M 82.5,67.5 C 117.84,67.1668 153.173,67.5001 188.5,68.5C 199.76,86.1788 202.594,105.179 197,125.5C 188.491,149.676 171.658,164.176 146.5,169C 112.863,172.44 89.0292,158.94 75,128.5C 68.3439,106.964 70.8439,86.6305 82.5,67.5 Z"/></g>
<g><path style="opacity:0.986" fill="#000000" d="M 322.5,67.5 C 357.84,67.1668 393.173,67.5001 428.5,68.5C 439.76,86.1788 442.594,105.179 437,125.5C 428.491,149.676 411.658,164.176 386.5,169C 352.863,172.44 329.029,158.94 315,128.5C 308.344,106.964 310.844,86.6305 322.5,67.5 Z"/></g>
<g><path style="opacity:0.971" fill="#000000" d="M 245.5,167.5 C 275.378,164.761 295.712,177.261 306.5,205C 272.835,205.5 239.168,205.667 205.5,205.5C 211.373,184.96 224.707,172.293 245.5,167.5 Z"/></g>
<g><path style="opacity:0.987" fill="#000000" d="M 79.5,180.5 C 81.1992,180.34 82.8659,180.506 84.5,181C 107.221,196.009 131.888,200.343 158.5,194C 167.639,191.512 176.139,187.679 184,182.5C 184.167,183 184.333,183.5 184.5,184C 178.141,198.127 174.974,212.96 175,228.5C 162.976,252.785 161.309,277.785 170,303.5C 171.432,307.531 173.266,311.364 175.5,315C 157.081,326.076 141.081,340.076 127.5,357C 96.1188,357.97 64.7854,357.636 33.5,356C 10.0186,346.882 -0.648062,329.716 1.5,304.5C 3.23375,247.661 29.2337,206.328 79.5,180.5 Z"/></g>
<g><path style="opacity:0.987" fill="#000000" d="M 426.5,180.5 C 434.876,182.353 442.543,185.853 449.5,191C 495.532,224.041 515.032,268.874 508,325.5C 502.5,340.333 492.333,350.5 477.5,356C 446.215,357.636 414.881,357.97 383.5,357C 369.919,340.076 353.919,326.076 335.5,315C 347.181,292.869 349.681,269.703 343,245.5C 341.448,239.511 339.115,233.844 336,228.5C 335.168,221.516 334.501,214.516 334,207.5C 332.032,198.947 329.699,190.613 327,182.5C 353.557,198.275 381.39,200.775 410.5,190C 416.392,187.563 421.726,184.396 426.5,180.5 Z"/></g>
<g><path style="opacity:0.986" fill="#000000" d="M 202.5,233.5 C 237.84,233.167 273.173,233.5 308.5,234.5C 319.76,252.179 322.594,271.179 317,291.5C 308.491,315.676 291.658,330.176 266.5,335C 232.863,338.44 209.029,324.94 195,294.5C 188.344,272.964 190.844,252.63 202.5,233.5 Z"/></g>
<g><path style="opacity:0.986" fill="#000000" d="M 189.5,337.5 C 190.873,337.343 192.207,337.51 193.5,338C 222.239,363.29 254.572,369.29 290.5,356C 301.128,351.179 310.795,345.012 319.5,337.5C 359.252,359.948 382.418,393.948 389,439.5C 389.667,450.833 389.667,462.167 389,473.5C 383.833,492 372,503.833 353.5,509C 322.167,509.667 290.833,509.667 259.5,509C 244.928,501.442 241.428,490.275 249,475.5C 251.708,471.896 255.208,469.396 259.5,468C 278.543,467.935 297.543,467.269 316.5,466C 324.444,461.494 326.611,454.994 323,446.5C 320.261,442.381 316.427,440.214 311.5,440C 274.167,439.333 236.833,439.333 199.5,440C 188.99,441.848 184.823,448.015 187,458.5C 188.833,461.667 191.333,464.167 194.5,466C 203.804,467.021 213.138,467.854 222.5,468.5C 217.167,481.833 217.167,495.167 222.5,508.5C 200.841,509.666 179.174,509.833 157.5,509C 139,503.833 127.167,492 122,473.5C 117.147,414.208 139.647,368.874 189.5,337.5 Z"/></g>
</svg>
