<?xml version="1.0" encoding="UTF-8"?>
<!DOCTYPE svg PUBLIC "-//W3C//DTD SVG 1.1//EN" "http://www.w3.org/Graphics/SVG/1.1/DTD/svg11.dtd">
<svg xmlns="http://www.w3.org/2000/svg" version="1.1" width="64px" height="64px" style="shape-rendering:geometricPrecision; text-rendering:geometricPrecision; image-rendering:optimizeQuality; fill-rule:evenodd; clip-rule:evenodd" xmlns:xlink="http://www.w3.org/1999/xlink">
<g><path style="opacity:0.822" fill="#000000" d="M 23.5,1.5 C 24.3764,1.36912 25.0431,1.70245 25.5,2.5C 20.9532,7.26129 18.2865,12.928 17.5,19.5C 12.8215,19.6658 8.1548,19.4992 3.5,19C 7.59939,10.1336 14.2661,4.30031 23.5,1.5 Z"/></g>
<g><path style="opacity:0.822" fill="#000000" d="M 37.5,1.5 C 47.7061,3.76425 55.0394,9.59759 59.5,19C 54.8452,19.4992 50.1785,19.6658 45.5,19.5C 44.4354,12.711 41.7688,6.71099 37.5,1.5 Z"/></g>
<g><path style="opacity:0.91" fill="#000000" d="M 28.5,3.5 C 31.6021,3.15402 34.4355,3.82069 37,5.5C 39.9117,9.7337 41.745,14.4004 42.5,19.5C 35.1667,19.5 27.8333,19.5 20.5,19.5C 21.0971,12.988 23.7638,7.65468 28.5,3.5 Z"/></g>
<g><path style="opacity:0.918" fill="#000000" d="M 1.5,23.5 C 6.5,23.5 11.5,23.5 16.5,23.5C 16.5,28.8333 16.5,34.1667 16.5,39.5C 11.5,39.5 6.5,39.5 1.5,39.5C 1.5,34.1667 1.5,28.8333 1.5,23.5 Z"/></g>
<g><path style="opacity:0.983" fill="#000000" d="M 19.5,23.5 C 27.5,23.5 35.5,23.5 43.5,23.5C 43.5,28.8333 43.5,34.1667 43.5,39.5C 35.5,39.5 27.5,39.5 19.5,39.5C 19.5,34.1667 19.5,28.8333 19.5,23.5 Z"/></g>
<g><path style="opacity:0.918" fill="#000000" d="M 46.5,23.5 C 51.5,23.5 56.5,23.5 61.5,23.5C 61.5,28.8333 61.5,34.1667 61.5,39.5C 56.5,39.5 51.5,39.5 46.5,39.5C 46.5,34.1667 46.5,28.8333 46.5,23.5 Z"/></g>
<g><path style="opacity:0.821" fill="#000000" d="M 3.5,44.5 C 7.97005,43.5139 12.6367,43.1805 17.5,43.5C 18.2865,50.072 20.9532,55.7387 25.5,60.5C 15.5107,59.1418 8.17739,53.8085 3.5,44.5 Z"/></g>
<g><path style="opacity:0.909" fill="#000000" d="M 20.5,43.5 C 27.8333,43.5 35.1667,43.5 42.5,43.5C 41.745,48.5996 39.9117,53.2663 37,57.5C 33.3333,60.1667 29.6667,60.1667 26,57.5C 23.0883,53.2663 21.255,48.5996 20.5,43.5 Z"/></g>
<g><path style="opacity:0.821" fill="#000000" d="M 45.5,43.5 C 50.1785,43.3342 54.8452,43.5008 59.5,44C 54.994,53.7082 47.6606,59.2082 37.5,60.5C 42.0468,55.7387 44.7135,50.072 45.5,43.5 Z"/></g>
</svg>
