<?xml version="1.0" encoding="UTF-8"?>
<!DOCTYPE svg PUBLIC "-//W3C//DTD SVG 1.1//EN" "http://www.w3.org/Graphics/SVG/1.1/DTD/svg11.dtd">
<svg xmlns="http://www.w3.org/2000/svg" version="1.1" width="64px" height="64px" style="shape-rendering:geometricPrecision; text-rendering:geometricPrecision; image-rendering:optimizeQuality; fill-rule:evenodd; clip-rule:evenodd" xmlns:xlink="http://www.w3.org/1999/xlink">
<g><path style="opacity:0.918" fill="#000000" d="M 32.5,21.5 C 32.5,20.1667 32.5,18.8333 32.5,17.5C 37.2137,17.8266 41.8804,17.4933 46.5,16.5C 45.3112,15.5713 43.9778,15.238 42.5,15.5C 42.7564,13.2075 42.4231,11.0408 41.5,9C 33.5,8.33333 25.5,8.33333 17.5,9C 16.6198,10.3561 16.2865,11.8561 16.5,13.5C 13.3956,14.8407 10.5623,14.5074 8,12.5C 7.33333,11.5 7.33333,10.5 8,9.5C 14.3176,6.28178 20.8176,3.44844 27.5,1C 30.8333,0.333333 34.1667,0.333333 37.5,1C 42.9929,3.75156 48.6596,5.91823 54.5,7.5C 54.5,12.1667 54.5,16.8333 54.5,21.5C 47.1667,21.5 39.8333,21.5 32.5,21.5 Z"/></g>
<g><path style="opacity:0.984" fill="#000000" d="M 56.5,4.5 C 58.5,4.5 60.5,4.5 62.5,4.5C 62.5,11.1667 62.5,17.8333 62.5,24.5C 60.5,24.5 58.5,24.5 56.5,24.5C 56.5,17.8333 56.5,11.1667 56.5,4.5 Z"/></g>
<g><path style="opacity:0.969" fill="#000000" d="M 23.5,15.5 C 22.5041,15.4142 21.6708,15.7476 21,16.5C 20.8321,26.1838 20.3321,35.8505 19.5,45.5C 18.5011,33.8523 18.1678,22.1857 18.5,10.5C 25.8333,10.5 33.1667,10.5 40.5,10.5C 40.5,12.1667 40.5,13.8333 40.5,15.5C 36.9665,14.1676 33.2998,13.1676 29.5,12.5C 27.8333,12.6667 26.1667,12.8333 24.5,13C 23.7476,13.6708 23.4142,14.5041 23.5,15.5 Z"/></g>
<g><path style="opacity:0.911" fill="#000000" d="M 32.5,17.5 C 31.1667,18.8333 31.1667,20.1667 32.5,21.5C 33.2613,22.3909 34.2613,23.0576 35.5,23.5C 36.4973,30.8032 36.8306,38.1365 36.5,45.5C 31.8333,45.5 27.1667,45.5 22.5,45.5C 22.1926,35.4176 22.5259,25.4176 23.5,15.5C 27.123,14.2418 30.7897,14.2418 34.5,15.5C 33.7573,16.1818 33.0906,16.8485 32.5,17.5 Z"/></g>
<g><path style="opacity:0.969" fill="#000000" d="M 38.5,23.5 C 40.45,28.7351 41.1167,34.4018 40.5,40.5C 44.5,40.5 48.5,40.5 52.5,40.5C 53.1667,44.5 53.8333,48.5 54.5,52.5C 36.5,52.5 18.5,52.5 0.5,52.5C 1.16667,48.5 1.83333,44.5 2.5,40.5C 7.16667,40.5 11.8333,40.5 16.5,40.5C 16.5,42.1667 16.5,43.8333 16.5,45.5C 15.325,45.281 14.325,45.6143 13.5,46.5C 22.8333,47.8333 32.1667,47.8333 41.5,46.5C 40.675,45.6143 39.675,45.281 38.5,45.5C 38.5,38.1667 38.5,30.8333 38.5,23.5 Z"/></g>
<g><path style="opacity:0.765" fill="#000000" d="M 26.5,27.5 C 28.5,27.5 30.5,27.5 32.5,27.5C 32.5,29.5 32.5,31.5 32.5,33.5C 30.5,33.5 28.5,33.5 26.5,33.5C 26.5,31.5 26.5,29.5 26.5,27.5 Z"/></g>
<g><path style="opacity:1" fill="#000000" d="M 0.5,54.5 C 18.5,54.5 36.5,54.5 54.5,54.5C 54.5,57.1667 54.5,59.8333 54.5,62.5C 36.5,62.5 18.5,62.5 0.5,62.5C 0.5,59.8333 0.5,57.1667 0.5,54.5 Z"/></g>
</svg>
